<?xml version="1.0" encoding="UTF-8" standalone="no"?>
<!-- Created with Inkscape (http://www.inkscape.org/) -->

<svg
   xmlns:dc="http://purl.org/dc/elements/1.1/"
   xmlns:cc="http://creativecommons.org/ns#"
   xmlns:rdf="http://www.w3.org/1999/02/22-rdf-syntax-ns#"
   xmlns:svg="http://www.w3.org/2000/svg"
   xmlns="http://www.w3.org/2000/svg"
   xmlns:sodipodi="http://sodipodi.sourceforge.net/DTD/sodipodi-0.dtd"
   xmlns:inkscape="http://www.inkscape.org/namespaces/inkscape"
   width="49.977779mm"
   height="92.311111mm"
   id="svg2"
   version="1.1"
   inkscape:version="0.91 r"
   sodipodi:docname="Nicelab_logo_v2.1.svg"
   inkscape:export-filename="/home/bertrand/Documents/Nicelab/Logo/Version 2/Nicelab_logo_v2.1.png"
   inkscape:export-xdpi="90"
   inkscape:export-ydpi="90">
  <title
     id="title4153">Nicelab logo v2.1</title>
  <defs
     id="defs4" />
  <sodipodi:namedview
     id="base"
     pagecolor="#ffffff"
     bordercolor="#666666"
     borderopacity="1.0"
     inkscape:pageopacity="0.0"
     inkscape:pageshadow="2"
     inkscape:zoom="1.979899"
     inkscape:cx="68.199639"
     inkscape:cy="140.33553"
     inkscape:document-units="px"
     inkscape:current-layer="layer1"
     showgrid="true"
     inkscape:window-width="1615"
     inkscape:window-height="1026"
     inkscape:window-x="65"
     inkscape:window-y="24"
     inkscape:window-maximized="1"
     gridtolerance="10000"
     fit-margin-top="1"
     fit-margin-left="1"
     fit-margin-right="1"
     fit-margin-bottom="1">
    <inkscape:grid
       type="xygrid"
       id="grid3004"
       empspacing="2"
       visible="true"
       enabled="true"
       snapvisiblegridlinesonly="true"
       spacingx="5px"
       spacingy="5px"
       originx="-26.456693"
       originy="-51.456729" />
  </sodipodi:namedview>
  <metadata
     id="metadata7">
    <rdf:RDF>
      <cc:Work
         rdf:about="">
        <dc:format>image/svg+xml</dc:format>
        <dc:type
           rdf:resource="http://purl.org/dc/dcmitype/StillImage" />
        <dc:title>Nicelab logo v2.1</dc:title>
        <cc:license
           rdf:resource="http://creativecommons.org/licenses/by-nc-sa/3.0/" />
        <dc:rights>
          <cc:Agent>
            <dc:title>© 2015 Nicelab.org</dc:title>
          </cc:Agent>
        </dc:rights>
        <dc:date>2015</dc:date>
        <dc:description>Nicelab logo version 2.1</dc:description>
        <dc:creator>
          <cc:Agent>
            <dc:title>Miniwark</dc:title>
          </cc:Agent>
        </dc:creator>
        <dc:contributor>
          <cc:Agent>
            <dc:title>Miniwark</dc:title>
          </cc:Agent>
        </dc:contributor>
        <dc:publisher>
          <cc:Agent>
            <dc:title>Nicelab.org</dc:title>
          </cc:Agent>
        </dc:publisher>
      </cc:Work>
      <cc:License
         rdf:about="http://creativecommons.org/licenses/by-nc-sa/3.0/">
        <cc:permits
           rdf:resource="http://creativecommons.org/ns#Reproduction" />
        <cc:permits
           rdf:resource="http://creativecommons.org/ns#Distribution" />
        <cc:requires
           rdf:resource="http://creativecommons.org/ns#Notice" />
        <cc:requires
           rdf:resource="http://creativecommons.org/ns#Attribution" />
        <cc:prohibits
           rdf:resource="http://creativecommons.org/ns#CommercialUse" />
        <cc:permits
           rdf:resource="http://creativecommons.org/ns#DerivativeWorks" />
        <cc:requires
           rdf:resource="http://creativecommons.org/ns#ShareAlike" />
      </cc:License>
    </rdf:RDF>
  </metadata>
  <g
     inkscape:label="Calque 1"
     inkscape:groupmode="layer"
     id="layer1"
     style="display:inline"
     transform="translate(-26.456693,-673.81887)">
    <path
       style="fill:#000000;fill-opacity:1;stroke:none"
       d="m 30,717.36218 0,25 10,0 0,235 10,0 0,-260 z m 20,260 0,10 20,0 0,-10 z m 20,10 0,10 50,0 0,-10 z m 50,0 20,0 0,-10 -20,0 z m 20,-10 10,0 0,-235 10,0 0,-25 -20,0 z"
       id="path3101"
       inkscape:connector-curvature="0"
       sodipodi:nodetypes="ccccccccccccccccccccccccccccc" />
    <path
       style="fill:#8dc5fe;fill-opacity:1;stroke:none"
       d="m 50,777.36218 90,0 0,55 -90,0 z"
       id="path3879"
       inkscape:connector-curvature="0"
       sodipodi:nodetypes="ccccc" />
    <path
       style="fill:#5babff;fill-opacity:1;stroke:none"
       d="m 140,832.36218 0,60 -90,0 0,-60 z"
       id="path3881"
       inkscape:connector-curvature="0"
       sodipodi:nodetypes="ccccc" />
    <path
       style="fill:#3399fe;fill-opacity:1;stroke:none"
       d="m 50,892.36218 90,0 0,85 -20,0 0,10 -50,0 0,-10 -20,0 z"
       id="path3883"
       inkscape:connector-curvature="0"
       sodipodi:nodetypes="ccccccccc" />
    <path
       style="fill:#c8c8c8;fill-opacity:1;stroke:none"
       d="m 70,712.36218 0,5 10,0 0,-5 -10,0 z m 10,5 0,5 5,0 0,15 -5,0 0,5 10,0 0,-25 -10,0 z m 0,25 -10,0 0,5 10,0 0,-5 z m -10,0 0,-5 -5,0 0,-15 5,0 0,-5 -10,0 0,25 10,0 z"
       id="path3885"
       inkscape:connector-curvature="0" />
    <path
       style="fill:#c8c8c8;fill-opacity:1;stroke:none"
       d="m 110,677.36218 0,5 15,0 0,-5 -15,0 z m 15,5 0,5 5,0 0,20 -5,0 0,5 10,0 0,-30 -10,0 z m 0,30 -15,0 0,5 15,0 0,-5 z m -15,0 0,-5 -5,0 0,-20 5,0 0,-5 -10,0 0,30 10,0 z"
       id="path3911"
       inkscape:connector-curvature="0" />
    <path
       style="fill:#c8c8c8;fill-opacity:1;stroke:none"
       d="m 100,752.36218 0,5 10,0 0,-5 -10,0 z m 10,5 0,10 5,0 0,-10 -5,0 z m 0,10 -10,0 0,5 10,0 0,-5 z m -10,0 0,-10 -5,0 0,10 5,0 z"
       id="path3925"
       inkscape:connector-curvature="0" />
    <g
       id="g4309"
       transform="translate(-5.01282,-4.9999974)">
      <path
         inkscape:connector-curvature="0"
         id="path3947"
         d="m 170,877.36218 5,0 0,-15 5,0 0,15 15,0 0,-20 -25,0 0,20 z m 15,-5 0,-10 5,0 0,10 -5,0 z"
         style="fill:#000000;fill-opacity:1;stroke:none" />
      <path
         inkscape:connector-curvature="0"
         id="path4061"
         d="m 160,852.36218 35,0 0,-20 -25,0 0,15 -10,0 0,5 z m 15,-5 0,-10 15,0 0,10 -15,0 z"
         style="fill:#000000;fill-opacity:1;stroke:none" />
      <path
         inkscape:connector-curvature="0"
         id="path4066"
         d="m 175,927.36218 0,15 15,0 0,-15 5,0 0,20 -25,0 0,-20 z"
         style="fill:#000000;fill-opacity:1;stroke:none" />
      <path
         id="path3947-8"
         d="m 195,902.36218 -5,0 0,15 -5,0 0,-15 -15,0 0,20 25,0 0,-20 z m -15,5 0,10 -5,0 0,-10 5,0 z"
         style="display:inline;fill:#000000;fill-opacity:1;stroke:none"
         inkscape:connector-curvature="0" />
      <path
         inkscape:connector-curvature="0"
         id="path4086"
         d="m 160,957.36218 5,0 0,-5 -5,0 0,5 z m 10,0 25,0 0,-5 -25,0 0,5 z"
         style="fill:#000000;fill-opacity:1;stroke:none" />
      <path
         inkscape:connector-curvature="0"
         id="path4091"
         d="m 195,897.36218 0,-15 -5,0 0,10 -30,0 0,5 z"
         style="fill:#000000;fill-opacity:1;stroke:none" />
      <path
         inkscape:connector-curvature="0"
         id="path4093"
         d="m 195,982.36218 0,-5 -20,0 0,-10 20,0 0,-5 -25,0 0,20 z"
         style="fill:#000000;fill-opacity:1;stroke:none" />
      <path
         inkscape:connector-curvature="0"
         id="path4095"
         d="m 170,817.36218 25,0 0,-20 -25,0 0,20 z m 5,-5 0,-10 15,0 0,10 -15,0 z"
         style="display:inline;fill:#000000;fill-opacity:1;stroke:none" />
      <path
         inkscape:connector-curvature="0"
         id="path4101"
         d="m 194.98718,792.36218 -25,0 0,-20 10,0 0,5 -5,0 0,10 20,0 z"
         style="fill:#000000;fill-opacity:1;stroke:none" />
      <path
         inkscape:connector-curvature="0"
         id="path4105"
         d="m 170.01282,767.36218 25,0 0,-15 5,0 0,15 5,0 0,-20 -35,0 0,20 z m 5,-5 0,-10 15,0 0,10 -15,0 z"
         style="fill:#000000;fill-opacity:1;stroke:none" />
      <path
         inkscape:connector-curvature="0"
         id="path4110"
         d="m 190,827.36218 5,0 0,-5 -5,0 z"
         style="fill:#000000;fill-opacity:1;stroke:none" />
    </g>
  </g>
</svg>
