<?xml version="1.0" encoding="UTF-8" standalone="no"?>
<!-- Created with Inkscape (http://www.inkscape.org/) -->

<svg
   xmlns:dc="http://purl.org/dc/elements/1.1/"
   xmlns:cc="http://creativecommons.org/ns#"
   xmlns:rdf="http://www.w3.org/1999/02/22-rdf-syntax-ns#"
   xmlns:svg="http://www.w3.org/2000/svg"
   xmlns="http://www.w3.org/2000/svg"
   xmlns:sodipodi="http://sodipodi.sourceforge.net/DTD/sodipodi-0.dtd"
   xmlns:inkscape="http://www.inkscape.org/namespaces/inkscape"
   width="73.966667mm"
   height="97.955559mm"
   id="svg2"
   version="1.1"
   inkscape:version="0.91 r"
   sodipodi:docname="Nicelab_logo_v2.2.svg">
  <title
     id="title4181">Nicelab logo v2.2</title>
  <defs
     id="defs4" />
  <sodipodi:namedview
     id="base"
     pagecolor="#ffffff"
     bordercolor="#666666"
     borderopacity="1.0"
     inkscape:pageopacity="0.0"
     inkscape:pageshadow="2"
     inkscape:zoom="1.979899"
     inkscape:cx="37.456472"
     inkscape:cy="173.25649"
     inkscape:document-units="px"
     inkscape:current-layer="layer1"
     showgrid="true"
     inkscape:window-width="1615"
     inkscape:window-height="1026"
     inkscape:window-x="65"
     inkscape:window-y="24"
     inkscape:window-maximized="1"
     gridtolerance="10000"
     showguides="true"
     inkscape:guide-bbox="true"
     fit-margin-top="1"
     fit-margin-bottom="1"
     fit-margin-right="1"
     fit-margin-left="1">
    <inkscape:grid
       type="xygrid"
       id="grid3004"
       empspacing="2"
       visible="true"
       enabled="true"
       snapvisiblegridlinesonly="true"
       spacingx="5px"
       spacingy="5px"
       originx="58.543307"
       originy="-36.456715" />
    <sodipodi:guide
       orientation="1,0"
       position="198.54331,13.543285"
       id="guide5255" />
    <sodipodi:guide
       orientation="1,0"
       position="168.54331,13.543285"
       id="guide5257" />
    <sodipodi:guide
       orientation="1,0"
       position="138.54331,13.543285"
       id="guide5259" />
    <sodipodi:guide
       orientation="1,0"
       position="108.54331,13.543285"
       id="guide5261" />
    <sodipodi:guide
       orientation="1,0"
       position="228.54331,13.543285"
       id="guide5263" />
    <sodipodi:guide
       orientation="1,0"
       position="258.54331,13.543285"
       id="guide5265" />
    <sodipodi:guide
       orientation="1,0"
       position="78.543307,13.543285"
       id="guide5267" />
    <sodipodi:guide
       orientation="0,1"
       position="48.543307,33.543285"
       id="guide5269" />
    <sodipodi:guide
       orientation="0,1"
       position="48.543307,93.543285"
       id="guide5273" />
    <sodipodi:guide
       orientation="0,1"
       position="48.543307,123.54328"
       id="guide5275" />
    <sodipodi:guide
       orientation="0,1"
       position="48.543307,153.54328"
       id="guide5277" />
    <sodipodi:guide
       orientation="0,1"
       position="48.543307,183.54328"
       id="guide5279" />
    <sodipodi:guide
       orientation="0,1"
       position="48.543307,213.54328"
       id="guide5281" />
    <sodipodi:guide
       orientation="0,1"
       position="48.543307,243.54328"
       id="guide5283" />
    <sodipodi:guide
       orientation="0,1"
       position="48.543307,273.54328"
       id="guide5285" />
    <sodipodi:guide
       orientation="0,1"
       position="48.543307,3.543285"
       id="guide5306" />
    <sodipodi:guide
       orientation="0,1"
       position="48.543307,303.54328"
       id="guide5308" />
    <sodipodi:guide
       orientation="0,1"
       position="48.543307,333.54328"
       id="guide5395" />
    <sodipodi:guide
       orientation="0,1"
       position="48.543307,363.54328"
       id="guide5397" />
  </sodipodi:namedview>
  <metadata
     id="metadata7">
    <rdf:RDF>
      <cc:Work
         rdf:about="">
        <dc:format>image/svg+xml</dc:format>
        <dc:type
           rdf:resource="http://purl.org/dc/dcmitype/StillImage" />
        <dc:title>Nicelab logo v2.2</dc:title>
        <cc:license
           rdf:resource="http://creativecommons.org/licenses/by-nc/3.0/" />
        <dc:rights>
          <cc:Agent>
            <dc:title>© 2015 Nicelab.org</dc:title>
          </cc:Agent>
        </dc:rights>
        <dc:publisher>
          <cc:Agent>
            <dc:title>Nicelab.org</dc:title>
          </cc:Agent>
        </dc:publisher>
        <dc:creator>
          <cc:Agent>
            <dc:title>Miniwark</dc:title>
          </cc:Agent>
        </dc:creator>
        <dc:date>2015</dc:date>
        <dc:description>Nicelab logo version 2.2</dc:description>
        <dc:contributor>
          <cc:Agent>
            <dc:title>Miniwark</dc:title>
          </cc:Agent>
        </dc:contributor>
      </cc:Work>
      <cc:License
         rdf:about="http://creativecommons.org/licenses/by-nc/3.0/">
        <cc:permits
           rdf:resource="http://creativecommons.org/ns#Reproduction" />
        <cc:permits
           rdf:resource="http://creativecommons.org/ns#Distribution" />
        <cc:requires
           rdf:resource="http://creativecommons.org/ns#Notice" />
        <cc:requires
           rdf:resource="http://creativecommons.org/ns#Attribution" />
        <cc:prohibits
           rdf:resource="http://creativecommons.org/ns#CommercialUse" />
        <cc:permits
           rdf:resource="http://creativecommons.org/ns#DerivativeWorks" />
      </cc:License>
    </rdf:RDF>
  </metadata>
  <g
     inkscape:label="Calque 1"
     inkscape:groupmode="layer"
     id="layer1"
     style="display:inline"
     transform="translate(58.543307,-668.81887)">
    <path
       style="fill:#000000;fill-opacity:1;stroke:none"
       d="m 30,712.36218 0,30 10,0 0,240 10,0 0,-270 z m 20,270 0,10 20,0 0,-9.99999 z m 20,10.00001 0,10.00001 50,0 0,-10.00002 z m 50,-1e-5 20,0 0,-10 -20,0 z m 20,-10 10,0 0,-240 10,0 0,-30 -20,0 z"
       id="path3101"
       inkscape:connector-curvature="0"
       sodipodi:nodetypes="ccccccccccccccccccccccccccccc" />
    <path
       style="fill:#89c4fd;fill-opacity:1;stroke:none"
       d="m 50,772.36218 90,0 0,60 -90,0 z"
       id="path3879"
       inkscape:connector-curvature="0"
       sodipodi:nodetypes="ccccc" />
    <path
       style="fill:#5caefe;fill-opacity:1;stroke:none"
       d="m 140,832.36218 0,60 -90,0 0,-60 z"
       id="path3881"
       inkscape:connector-curvature="0"
       sodipodi:nodetypes="ccccc" />
    <path
       style="fill:#339afe;fill-opacity:1;stroke:none"
       d="m 50,892.36218 90,0 0,90 -20,0 0,10 -50,0 0,-10 -20,0 z"
       id="path3883"
       inkscape:connector-curvature="0"
       sodipodi:nodetypes="ccccccccc" />
    <path
       style="fill:#ffa523;fill-opacity:1;stroke:none"
       d="m 70,707.36218 0,5 10,0 0,-5 -10,0 z m 10,5 0,5 5,0 0,15 -5,0 0,5 10,0 0,-25 -10,0 z m 0,25 -10,0 0,5 10,0 0,-5 z m -10,0 0,-5 -5,0 0,-15 5,0 0,-5 -10,0 0,25 10,0 z"
       id="path3885"
       inkscape:connector-curvature="0" />
    <path
       style="fill:#ffa523;fill-opacity:1;stroke:none"
       d="m 110,672.36218 0,5 15,0 0,-5 -15,0 z m 15,5 0,5 5,0 0,20 -5,0 0,5 10,0 0,-30 -10,0 z m 0,30 -15,0 0,5 15,0 0,-5 z m -15,0 0,-5 -5,0 0,-20 5,0 0,-5 -10,0 0,30 10,0 z"
       id="path3911"
       inkscape:connector-curvature="0" />
    <path
       style="fill:#ffa523;fill-opacity:1;stroke:none"
       d="m 100,747.36218 0,5 10,0 0,-5 -10,0 z m 10,5 0,10 5,0 0,-10 -5,0 z m 0,10 -10,0 0,5 10,0 0,-5 z m -10,0 0,-10 -5,0 0,10 5,0 z"
       id="path3925"
       inkscape:connector-curvature="0" />
    <g
       id="g4309"
       transform="translate(-5.01282,5.2171877e-6)">
      <path
         inkscape:connector-curvature="0"
         id="path3947"
         d="m 170,877.36218 5,0 0,-15 5,0 0,15 15,0 0,-20 -25,0 0,20 z m 15,-5 0,-10 5,0 0,10 -5,0 z"
         style="fill:#000000;fill-opacity:1;stroke:none" />
      <path
         inkscape:connector-curvature="0"
         id="path4061"
         d="m 160,852.36218 35,0 0,-20 -25,0 0,15 -10,0 0,5 z m 15,-5 0,-10 15,0 0,10 -15,0 z"
         style="fill:#000000;fill-opacity:1;stroke:none" />
      <path
         inkscape:connector-curvature="0"
         id="path4066"
         d="m 175,927.36218 0,15 15,0 0,-15 5,0 0,20 -25,0 0,-20 z"
         style="fill:#000000;fill-opacity:1;stroke:none" />
      <path
         id="path3947-8"
         d="m 195,902.36218 -5,0 0,15 -5,0 0,-15 -15,0 0,20 25,0 0,-20 z m -15,5 0,10 -5,0 0,-10 5,0 z"
         style="display:inline;fill:#000000;fill-opacity:1;stroke:none"
         inkscape:connector-curvature="0" />
      <path
         inkscape:connector-curvature="0"
         id="path4086"
         d="m 160,957.36218 5,0 0,-5 -5,0 0,5 z m 10,0 25,0 0,-5 -25,0 0,5 z"
         style="fill:#000000;fill-opacity:1;stroke:none" />
      <path
         inkscape:connector-curvature="0"
         id="path4091"
         d="m 195,897.36218 0,-15 -5,0 0,10 -30,0 0,5 z"
         style="fill:#000000;fill-opacity:1;stroke:none" />
      <path
         inkscape:connector-curvature="0"
         id="path4093"
         d="m 195,982.36218 0,-5 -20,0 0,-10 20,0 0,-5 -25,0 0,20 z"
         style="fill:#000000;fill-opacity:1;stroke:none" />
      <path
         inkscape:connector-curvature="0"
         id="path4095"
         d="m 170,817.36218 25,0 0,-20 -25,0 0,20 z m 5,-5 0,-10 15,0 0,10 -15,0 z"
         style="display:inline;fill:#000000;fill-opacity:1;stroke:none" />
      <path
         inkscape:connector-curvature="0"
         id="path4101"
         d="m 194.98718,792.36218 -25,0 0,-20 10,0 0,5 -5,0 0,10 20,0 z"
         style="fill:#000000;fill-opacity:1;stroke:none" />
      <path
         inkscape:connector-curvature="0"
         id="path4105"
         d="m 170.01282,767.36218 25,0 0,-15 5,0 0,15 5,0 0,-20 -35,0 0,20 z m 5,-5 0,-10 15,0 0,10 -15,0 z"
         style="fill:#000000;fill-opacity:1;stroke:none" />
      <path
         inkscape:connector-curvature="0"
         id="path4110"
         d="m 190,827.36218 5,0 0,-5 -5,0 z"
         style="fill:#000000;fill-opacity:1;stroke:none" />
    </g>
    <rect
       style="opacity:1;fill:#0279ec;fill-opacity:1;stroke:none;stroke-width:0.5;stroke-linejoin:miter;stroke-miterlimit:4;stroke-dasharray:none;stroke-opacity:1"
       id="rect6459"
       width="30"
       height="30"
       x="-40"
       y="982.36218" />
    <rect
       style="opacity:1;fill:#0f88fd;fill-opacity:1;stroke:none;stroke-width:0.5;stroke-linejoin:miter;stroke-miterlimit:4;stroke-dasharray:none;stroke-opacity:1"
       id="rect6461"
       width="30"
       height="30"
       x="-40"
       y="952.36218" />
    <rect
       style="opacity:1;fill:#339afe;fill-opacity:1;stroke:none;stroke-width:0.5;stroke-linejoin:miter;stroke-miterlimit:4;stroke-dasharray:none;stroke-opacity:1"
       id="rect6463"
       width="30"
       height="30"
       x="-40"
       y="922.36218" />
    <rect
       style="opacity:1;fill:#5caefe;fill-opacity:1;stroke:none;stroke-width:0.5;stroke-linejoin:miter;stroke-miterlimit:4;stroke-dasharray:none;stroke-opacity:1"
       id="rect6465"
       width="30"
       height="30"
       x="-40"
       y="892.36218" />
    <rect
       style="opacity:1;fill:#89c4fd;fill-opacity:1;stroke:none;stroke-width:0.5;stroke-linejoin:miter;stroke-miterlimit:4;stroke-dasharray:none;stroke-opacity:1"
       id="rect6467"
       width="30"
       height="30"
       x="-40"
       y="862.36218" />
    <rect
       style="opacity:1;fill:#ffcc81;fill-opacity:1;stroke:none;stroke-width:0.5;stroke-linejoin:miter;stroke-miterlimit:4;stroke-dasharray:none;stroke-opacity:1"
       id="rect6485"
       width="15"
       height="30"
       x="-55"
       y="862.36218" />
    <rect
       style="opacity:1;fill:#ffb850;fill-opacity:1;stroke:none;stroke-width:0.5;stroke-linejoin:miter;stroke-miterlimit:4;stroke-dasharray:none;stroke-opacity:1"
       id="rect6487"
       width="15"
       height="30"
       x="-55"
       y="892.36218" />
    <rect
       style="opacity:1;fill:#ffa523;fill-opacity:1;stroke:none;stroke-width:0.5;stroke-linejoin:miter;stroke-miterlimit:4;stroke-dasharray:none;stroke-opacity:1"
       id="rect6489"
       width="15"
       height="30"
       x="-55"
       y="922.36218" />
    <rect
       style="opacity:1;fill:#ff9700;fill-opacity:1;stroke:none;stroke-width:0.5;stroke-linejoin:miter;stroke-miterlimit:4;stroke-dasharray:none;stroke-opacity:1"
       id="rect6495"
       width="15"
       height="60"
       x="-55"
       y="952.36218" />
  </g>
</svg>
