<?xml version="1.0" encoding="UTF-8" standalone="no"?>
<!-- Created with Inkscape (http://www.inkscape.org/) -->

<svg
   xmlns:dc="http://purl.org/dc/elements/1.1/"
   xmlns:cc="http://creativecommons.org/ns#"
   xmlns:rdf="http://www.w3.org/1999/02/22-rdf-syntax-ns#"
   xmlns:svg="http://www.w3.org/2000/svg"
   xmlns="http://www.w3.org/2000/svg"
   xmlns:sodipodi="http://sodipodi.sourceforge.net/DTD/sodipodi-0.dtd"
   xmlns:inkscape="http://www.inkscape.org/namespaces/inkscape"
   width="744.09448"
   height="1052.3622"
   viewBox="0 0 744.09449 1052.3622"
   id="svg4209"
   version="1.1"
   inkscape:version="0.91 r"
   sodipodi:docname="nicelab_font.svg">
  <defs
     id="defs4211" />
  <sodipodi:namedview
     id="base"
     pagecolor="#ffffff"
     bordercolor="#666666"
     borderopacity="1.0"
     inkscape:pageopacity="0.0"
     inkscape:pageshadow="2"
     inkscape:zoom="0.98994949"
     inkscape:cx="469.30081"
     inkscape:cy="842.60969"
     inkscape:document-units="px"
     inkscape:current-layer="layer1"
     showgrid="true"
     inkscape:window-width="1615"
     inkscape:window-height="1026"
     inkscape:window-x="65"
     inkscape:window-y="24"
     inkscape:window-maximized="1"
     units="px"
     showguides="true"
     inkscape:guide-bbox="true">
    <inkscape:grid
       type="xygrid"
       id="grid4954"
       spacingx="10"
       spacingy="10" />
    <sodipodi:guide
       position="50,1100"
       orientation="1,0"
       id="guide5198" />
    <sodipodi:guide
       position="100,1100"
       orientation="1,0"
       id="guide5200" />
    <sodipodi:guide
       position="150,1100"
       orientation="1,0"
       id="guide5202" />
    <sodipodi:guide
       position="200,1100"
       orientation="1,0"
       id="guide5204" />
    <sodipodi:guide
       position="250,1100"
       orientation="1,0"
       id="guide5206" />
    <sodipodi:guide
       position="-50,1000"
       orientation="0,1"
       id="guide5208" />
    <sodipodi:guide
       position="-50,1020"
       orientation="0,1"
       id="guide5210" />
    <sodipodi:guide
       position="-50,950"
       orientation="0,1"
       id="guide5212" />
    <sodipodi:guide
       position="-50,900"
       orientation="0,1"
       id="guide5214" />
    <sodipodi:guide
       position="-50,850"
       orientation="0,1"
       id="guide5216" />
    <sodipodi:guide
       position="-50,920"
       orientation="0,1"
       id="guide5218" />
    <sodipodi:guide
       position="-50,830"
       orientation="0,1"
       id="guide5220" />
    <sodipodi:guide
       position="-50,800"
       orientation="0,1"
       id="guide5222" />
    <sodipodi:guide
       position="-50,750"
       orientation="0,1"
       id="guide5224" />
    <sodipodi:guide
       position="-50,820"
       orientation="0,1"
       id="guide5226" />
    <sodipodi:guide
       position="-50,720"
       orientation="0,1"
       id="guide5228" />
    <sodipodi:guide
       position="-50,650"
       orientation="0,1"
       id="guide5230" />
    <sodipodi:guide
       position="-50,550"
       orientation="0,1"
       id="guide5232" />
    <sodipodi:guide
       position="-50,600"
       orientation="0,1"
       id="guide5234" />
    <sodipodi:guide
       position="-50,630"
       orientation="0,1"
       id="guide5236" />
    <sodipodi:guide
       position="-50,700"
       orientation="0,1"
       id="guide5238" />
    <sodipodi:guide
       position="140,1060"
       orientation="1,0"
       id="guide5240" />
    <sodipodi:guide
       position="90,1060"
       orientation="1,0"
       id="guide5242" />
    <sodipodi:guide
       position="190,1060"
       orientation="1,0"
       id="guide5244" />
    <sodipodi:guide
       position="240,1060"
       orientation="1,0"
       id="guide5246" />
    <sodipodi:guide
       position="290,1060"
       orientation="1,0"
       id="guide5248" />
    <sodipodi:guide
       position="-50,450"
       orientation="0,1"
       id="guide5250" />
    <sodipodi:guide
       position="-50,500"
       orientation="0,1"
       id="guide5252" />
  </sodipodi:namedview>
  <metadata
     id="metadata4214">
    <rdf:RDF>
      <cc:Work
         rdf:about="">
        <dc:format>image/svg+xml</dc:format>
        <dc:type
           rdf:resource="http://purl.org/dc/dcmitype/StillImage" />
        <dc:title></dc:title>
        <cc:license
           rdf:resource="http://creativecommons.org/licenses/by-sa/3.0/" />
      </cc:Work>
      <cc:License
         rdf:about="http://creativecommons.org/licenses/by-sa/3.0/">
        <cc:permits
           rdf:resource="http://creativecommons.org/ns#Reproduction" />
        <cc:permits
           rdf:resource="http://creativecommons.org/ns#Distribution" />
        <cc:requires
           rdf:resource="http://creativecommons.org/ns#Notice" />
        <cc:requires
           rdf:resource="http://creativecommons.org/ns#Attribution" />
        <cc:permits
           rdf:resource="http://creativecommons.org/ns#DerivativeWorks" />
        <cc:requires
           rdf:resource="http://creativecommons.org/ns#ShareAlike" />
      </cc:License>
    </rdf:RDF>
  </metadata>
  <g
     inkscape:label="Calque 1"
     inkscape:groupmode="layer"
     id="layer1">
    <path
       style="fill:#339afe;fill-opacity:1;fill-rule:evenodd;stroke:none;stroke-width:1px;stroke-linecap:butt;stroke-linejoin:miter;stroke-opacity:1"
       d="m 100,32.36218 0,70 40.00035,0 0,-50.000003 -30.00026,0 0,-19.999997 -10.00009,0 z m 10.00009,30.000015 20.00017,0 0,29.999976 -20.00017,0 0,-29.999976 z"
       id="path4545-4"
       inkscape:connector-curvature="0" />
    <path
       style="fill:#339afe;fill-opacity:1;fill-rule:evenodd;stroke:none;stroke-width:1px;stroke-linecap:butt;stroke-linejoin:miter;stroke-opacity:1"
       d="m 50,452.36182 0,50.00036 40.00034,0 0,-50.00036 -10.00009,0 0,40.00028 -20.00017,0 0,-40.00028 z"
       id="path4617-5-8"
       inkscape:connector-curvature="0" />
    <path
       style="fill:#339afe;fill-opacity:1;fill-rule:evenodd;stroke:none;stroke-width:1px;stroke-linecap:butt;stroke-linejoin:miter;stroke-opacity:1"
       d="m 140.00035,422.36218 0,-70 -40.00035,0 0,49.99998 30.00026,0 0,20.00002 10.00009,0 z m -10.00009,-30.00002 -20.00017,0 0,-29.99998 20.00017,0 0,29.99998 z"
       id="path4545-4-2"
       inkscape:connector-curvature="0" />
    <path
       style="fill:#339afe;fill-opacity:1;fill-rule:evenodd;stroke:none;stroke-width:1px;stroke-linecap:butt;stroke-linejoin:miter;stroke-opacity:1"
       d="m 50,202.36218 0,-69.99994 29.99997,0 0,10 -19.99998,0 0,9.99998 9.99999,0 0,10 -9.99999,0 0,39.99996 z"
       id="path5748"
       inkscape:connector-curvature="0" />
    <g
       id="g5876"
       transform="matrix(2,0,0,2,368.50399,2501.1902)">
      <path
         inkscape:connector-curvature="0"
         id="path5159-8"
         d="m 797.24396,-648.4253 0,-17.7165 -17.7164,0 0,17.7165 z"
         style="fill:#339afe;fill-opacity:1;fill-rule:evenodd;stroke:none;stroke-width:1px;stroke-linecap:butt;stroke-linejoin:miter;stroke-opacity:1" />
      <path
         inkscape:connector-curvature="0"
         id="path5159-8-6"
         d="m 832.67703,-648.4253 0,-17.7165 -17.7164,0 0,17.7165 z"
         style="fill:#339afe;fill-opacity:1;fill-rule:evenodd;stroke:none;stroke-width:1px;stroke-linecap:butt;stroke-linejoin:miter;stroke-opacity:1" />
      <path
         inkscape:connector-curvature="0"
         id="path5159-8-4"
         d="m 868.1101,-648.4253 0,-17.7165 -17.7164,0 0,17.7165 z"
         style="fill:#339afe;fill-opacity:1;fill-rule:evenodd;stroke:none;stroke-width:1px;stroke-linecap:butt;stroke-linejoin:miter;stroke-opacity:1" />
    </g>
    <path
       style="fill:#339afe;fill-opacity:1;fill-rule:evenodd;stroke:none;stroke-width:1px;stroke-linecap:butt;stroke-linejoin:miter;stroke-opacity:1"
       d="m 50,52.362435 0,9.999957 30.000001,0 0,9.999957 -30.000001,0 0,29.999831 40,0 0,-49.999745 -40,0 z m 9.999999,29.999821 20.000002,0 0,9.999957 -20.000002,0 0,-9.999957 z"
       id="path4543-9-1"
       inkscape:connector-curvature="0" />
    <path
       style="fill:#339afe;fill-opacity:1;fill-rule:evenodd;stroke:none;stroke-width:1px;stroke-linecap:butt;stroke-linejoin:miter;stroke-opacity:1"
       d="m 150,402.36218 0,-50.08595 40.069,0 0,20.03436 -10.01725,0 0,-10.01715 -20.03449,0 0,40.06874 z"
       id="path4549-8-5-6-3"
       inkscape:connector-curvature="0" />
    <path
       style="fill:#339afe;fill-opacity:1;fill-rule:evenodd;stroke:none;stroke-width:1px;stroke-linecap:butt;stroke-linejoin:miter;stroke-opacity:1"
       d="m 250,52.362476 0,49.999704 40,0 0,-9.999914 -30,0 0,-9.999957 30,0 0,-29.999833 -40,0 z m 10,9.999968 20,0 0,9.999957 -20,0 0,-9.999957 z"
       id="path4600-9-4-6"
       inkscape:connector-curvature="0" />
    <path
       style="fill:#339afe;fill-opacity:1;fill-rule:evenodd;stroke:none;stroke-width:1px;stroke-linecap:butt;stroke-linejoin:miter;stroke-opacity:1"
       d="m 150,52.362402 0,49.999778 40,0 0,-9.999948 -30,0 0,-29.999887 30,0 0,-9.999943 z"
       id="path5149-1"
       inkscape:connector-curvature="0" />
    <path
       style="fill:#339afe;fill-opacity:1;fill-rule:evenodd;stroke:none;stroke-width:1px;stroke-linecap:butt;stroke-linejoin:miter;stroke-opacity:1"
       d="m 150,202.36218 0,-69.99968 10,0 0,19.99989 30,0 0,49.99979 -10,0 0,-39.99978 -20,0 0,39.99978 z"
       id="path5765"
       inkscape:connector-curvature="0" />
    <path
       style="fill:#339afe;fill-opacity:1;fill-rule:evenodd;stroke:none;stroke-width:1px;stroke-linecap:butt;stroke-linejoin:miter;stroke-opacity:1"
       d="m 50,232.36265 0,70 9.999995,0 0,-20.0003 10.000005,0 0,-10.00017 -10.000005,0 0,-39.99953 -9.999995,0 z m 20,39.99953 10.000005,0 0,-9.99902 -10.000005,0 0,9.99902 z m 10.000005,-9.99902 9.999995,0 0,-10.00017 -9.999995,0 0,10.00017 z M 70,282.36235 l 0,10.00017 10.000005,0 0,-10.00017 -10.000005,0 z m 10.000005,10.00017 0,10.00013 9.999995,0 0,-10.00013 -9.999995,0 z"
       id="path5159-8-41"
       inkscape:connector-curvature="0" />
    <path
       style="fill:#339afe;fill-opacity:1;fill-rule:evenodd;stroke:none;stroke-width:1px;stroke-linecap:butt;stroke-linejoin:miter;stroke-opacity:1"
       d="m 260.00009,332.36218 0,20.00002 10.00008,0 0,10 -10.00008,0 0,29.99997 10.00008,0 0,10.00001 -20.00017,0 0,-70 z"
       id="path4566-2"
       inkscape:connector-curvature="0" />
    <path
       style="fill:#339afe;fill-opacity:1;fill-rule:evenodd;stroke:none;stroke-width:1px;stroke-linecap:butt;stroke-linejoin:miter;stroke-opacity:1"
       d="m 200,132.36218 0,10.00001 10.00008,0 0,-10.00001 -10.00008,0 z m 0,20.00001 0,49.99999 10.00008,0 0,-49.99999 -10.00008,0 z"
       id="path4583-4"
       inkscape:connector-curvature="0" />
    <path
       style="fill:#339afe;fill-opacity:1;fill-rule:evenodd;stroke:none;stroke-width:1px;stroke-linecap:butt;stroke-linejoin:miter;stroke-opacity:1"
       d="m 240.00034,302.36265 0,-50.00036 -40.00034,0 0,50.00036 10.00009,0 0,-40.00028 20.00017,0 0,40.00028 z"
       id="path4617-5"
       inkscape:connector-curvature="0" />
    <path
       style="fill:#339afe;fill-opacity:1;fill-rule:evenodd;stroke:none;stroke-width:1px;stroke-linecap:butt;stroke-linejoin:miter;stroke-opacity:1"
       d="m 100,452.36182 0,40.00027 10.00009,0 0,-40.00027 -10.00009,0 z m 10.00009,40.00027 0,10.00009 10.00008,0 0,-10.00009 -10.00008,0 z m 10.00008,0 10.00011,0 0,-10.00008 -10.00011,0 0,10.00008 z m 10.00011,-10.00008 10.00008,0 0,-30.00019 -10.00008,0 0,30.00019 z"
       id="path4277-8"
       inkscape:connector-curvature="0" />
    <path
       style="fill:#339afe;fill-opacity:1;fill-rule:evenodd;stroke:none;stroke-width:1px;stroke-linecap:butt;stroke-linejoin:miter;stroke-opacity:1"
       d="M 100 592.36133 L 100 602.36133 L 110 602.36133 L 110 592.36133 L 100 592.36133 z M 120 592.36133 L 120 602.36133 L 130 602.36133 L 130 592.36133 L 120 592.36133 z M 140 592.36133 L 140 602.36133 L 150 602.36133 L 150 592.36133 L 140 592.36133 z "
       id="path5159-8-8" />
    <path
       style="fill:#339afe;fill-opacity:1;fill-rule:evenodd;stroke:none;stroke-width:1px;stroke-linecap:butt;stroke-linejoin:miter;stroke-opacity:1"
       d="m 100,232.36275 10,0 0,59.99992 20,0 0,9.99998 -30,0 z"
       id="path4541"
       inkscape:connector-curvature="0" />
    <path
       style="fill:#339afe;fill-opacity:1;fill-rule:evenodd;stroke:none;stroke-width:1px;stroke-linecap:butt;stroke-linejoin:miter;stroke-opacity:1"
       d="m 250,252.36272 0,49.99993 40,0 0,-49.99993 -40,0 z m 10.00001,9.99999 19.99999,0 0,29.99995 -19.99999,0 0,-29.99995 z"
       id="path4547"
       inkscape:connector-curvature="0" />
    <path
       style="fill:#339afe;fill-opacity:1;fill-rule:evenodd;stroke:none;stroke-width:1px;stroke-linecap:butt;stroke-linejoin:miter;stroke-opacity:1"
       d="m 50,422.36218 0,-70 40.00034,0 0,50 -30.00026,0 0,20 -10.00008,0 z m 10.00008,-30.00002 20.00017,0 0,-29.99997 -20.00017,0 0,29.99997 z"
       id="path4545-4-3"
       inkscape:connector-curvature="0" />
    <path
       style="fill:#339afe;fill-opacity:1;fill-rule:evenodd;stroke:none;stroke-width:1px;stroke-linecap:butt;stroke-linejoin:miter;stroke-opacity:1"
       d="m 240.00033,32.361687 0,70.000493 -40.00033,0 0,-50.000353 30.00025,0 0,-20.00014 10.00008,0 z m -10.00008,30.00023 -20.00016,0 0,30.00019 20.00016,0 0,-30.00019 z"
       id="path4545-4-5"
       inkscape:connector-curvature="0" />
    <path
       style="fill:#339afe;fill-opacity:1;fill-rule:evenodd;stroke:none;stroke-width:1px;stroke-linecap:butt;stroke-linejoin:miter;stroke-opacity:1"
       d="m 59.99994,602.36218 0,-9.99999 -9.99994,0 0,9.99999 z"
       id="path5159-8-8-3"
       inkscape:connector-curvature="0" />
    <path
       style="fill:#339afe;fill-opacity:1;fill-rule:evenodd;stroke:none;stroke-width:1px;stroke-linecap:butt;stroke-linejoin:miter;stroke-opacity:1"
       d="m 100,152.36189 0,50.00006 29.9998,0 0,10.00003 -29.9998,0 0,10.0002 40,0 0,-70.00029 -40,0 z m 9.9997,10.00009 20.0001,0 0,29.9999 -20.0001,0 0,-29.9999 z"
       id="path5167"
       inkscape:connector-curvature="0" />
    <path
       style="fill:#339afe;fill-rule:evenodd;stroke:none;stroke-width:1px;stroke-linecap:butt;stroke-linejoin:miter;stroke-opacity:1;fill-opacity:1"
       d="m 240,362.36219 0,-10 -40,0 0,30 30,0 0,10 -30,0 0,10 40,0 0,-30 -30,0 0,-10 z"
       id="path5322"
       inkscape:connector-curvature="0" />
    <path
       style="fill:#339afe;fill-opacity:1;fill-rule:evenodd;stroke:none;stroke-width:1px;stroke-linecap:butt;stroke-linejoin:miter;stroke-opacity:1"
       d="m 270,132.36133 0,10 10,0 0,-10 -10,0 z m 0,20 0,60 -10,0 0,-10 -10,0 0,20 30,0 0,-70 -10,0 z"
       id="path5341"
       inkscape:connector-curvature="0" />
  </g>
</svg>
