<?xml version="1.0" encoding="UTF-8" standalone="no"?>
<!-- Created with Inkscape (http://www.inkscape.org/) -->

<svg
   xmlns:dc="http://purl.org/dc/elements/1.1/"
   xmlns:cc="http://creativecommons.org/ns#"
   xmlns:rdf="http://www.w3.org/1999/02/22-rdf-syntax-ns#"
   xmlns:svg="http://www.w3.org/2000/svg"
   xmlns="http://www.w3.org/2000/svg"
   xmlns:sodipodi="http://sodipodi.sourceforge.net/DTD/sodipodi-0.dtd"
   xmlns:inkscape="http://www.inkscape.org/namespaces/inkscape"
   width="159.45546mm"
   height="159.45558mm"
   viewBox="0 0 564.99966 565.00009"
   id="svg4177"
   version="1.1"
   inkscape:version="0.91 r"
   sodipodi:docname="qrcode_blog.nicelab.org.svg"
   inkscape:export-filename="/home/bertrand/Documents/Nicelab/nicelab-propaganda/qrcode/qrcode_blog.nicelab.org.png"
   inkscape:export-xdpi="90"
   inkscape:export-ydpi="90">
  <title
     id="title4750">QR code blog.nicelab.org</title>
  <defs
     id="defs4179" />
  <sodipodi:namedview
     id="base"
     pagecolor="#ffffff"
     bordercolor="#666666"
     borderopacity="1.0"
     inkscape:pageopacity="0.0"
     inkscape:pageshadow="2"
     inkscape:zoom="0.35"
     inkscape:cx="-208.21446"
     inkscape:cy="-26.071382"
     inkscape:document-units="px"
     inkscape:current-layer="layer1"
     showgrid="false"
     fit-margin-top="0"
     fit-margin-left="0"
     fit-margin-right="0"
     fit-margin-bottom="0"
     inkscape:window-width="1615"
     inkscape:window-height="1026"
     inkscape:window-x="65"
     inkscape:window-y="24"
     inkscape:window-maximized="1" />
  <metadata
     id="metadata4182">
    <rdf:RDF>
      <cc:Work
         rdf:about="">
        <dc:format>image/svg+xml</dc:format>
        <dc:type
           rdf:resource="http://purl.org/dc/dcmitype/StillImage" />
        <dc:title>QR code blog.nicelab.org</dc:title>
        <cc:license
           rdf:resource="http://creativecommons.org/licenses/by-sa/3.0/" />
        <dc:publisher>
          <cc:Agent>
            <dc:title>Nicelab.org</dc:title>
          </cc:Agent>
        </dc:publisher>
        <dc:date>2016</dc:date>
        <dc:description>QR code for blog.nicelab.org</dc:description>
        <dc:creator>
          <cc:Agent>
            <dc:title>Miniwark</dc:title>
          </cc:Agent>
        </dc:creator>
        <dc:contributor>
          <cc:Agent>
            <dc:title>Miniwark</dc:title>
          </cc:Agent>
        </dc:contributor>
        <dc:rights>
          <cc:Agent>
            <dc:title>© 2016 Nicelab.org</dc:title>
          </cc:Agent>
        </dc:rights>
      </cc:Work>
      <cc:License
         rdf:about="http://creativecommons.org/licenses/by-sa/3.0/">
        <cc:permits
           rdf:resource="http://creativecommons.org/ns#Reproduction" />
        <cc:permits
           rdf:resource="http://creativecommons.org/ns#Distribution" />
        <cc:requires
           rdf:resource="http://creativecommons.org/ns#Notice" />
        <cc:requires
           rdf:resource="http://creativecommons.org/ns#Attribution" />
        <cc:permits
           rdf:resource="http://creativecommons.org/ns#DerivativeWorks" />
        <cc:requires
           rdf:resource="http://creativecommons.org/ns#ShareAlike" />
      </cc:License>
    </rdf:RDF>
  </metadata>
  <g
     inkscape:label="Calque 1"
     inkscape:groupmode="layer"
     id="layer1"
     transform="translate(813.9284,401.56642)">
    <path
       style="opacity:1;fill:#000000;fill-opacity:1;stroke:none;stroke-width:0.5;stroke-linejoin:miter;stroke-miterlimit:4;stroke-dasharray:none;stroke-opacity:1"
       d="m -813.9284,-401.56642 0,158.2 158.19992,0 0,-158.2 z m 203.3999,0 0,22.6 22.59995,0 0,67.8 45.1999,0 0,-45.2 45.2,0 0,-22.6 -22.6,0 0,-22.6 -22.6,0 0,22.6 -22.5999,0 0,-22.6 z m 112.99985,22.6 22.6,0 0,-22.6 -22.6,0 z m 22.6,0 0,22.6 22.6,0 0,22.6 22.6,0 0,-67.8 -22.6,0 0,22.6 z m -67.8,67.8 0,22.6 -22.5999,0 0,22.6 22.5999,0 0,22.6 -22.5999,0 0,-22.6 -22.6,0 0,22.6 -22.59995,0 0,-22.6 22.59995,0 0,-45.2 -22.59995,0 0,-45.2 -22.59999,0 0,135.6 22.59999,0 22.59995,0 0,22.6 -22.59995,0 0,22.6 45.19995,0 0,22.6 22.5999,0 0,-45.2 22.6,0 0,45.2 22.6,0 0,22.6 22.6,0 0,-22.6 22.6,0 0,-22.6 -22.6,0 -22.6,0 0,-45.2 -22.6,0 0,-45.2 22.6,0 0,45.2 22.6,0 0,-45.2 22.6,0 0,-22.6 -67.8,0 0,-22.6 z m 22.6,0 45.2,0 0,-22.6 -45.2,0 z m 67.8,22.6 22.6,0 0,-22.6 -22.6,0 z m 0,22.6 0,45.2 22.6,0 0,-45.2 z m -22.6,135.6 0,22.6 22.6,0 0,-22.6 z m 22.6,22.6 0,22.600003 -45.2,0 0,-22.600003 -45.2,0 0,22.600003 22.6,0 0,22.5998 -22.6,0 0,22.6 0,22.6 22.6,0 0,-22.6 22.6,0 0,-22.6 22.6,0 0,22.6 -22.6,0 0,22.6 22.6,0 0,22.6004003 22.6,0 0,45.1998997 -22.6,0 0,22.6 -67.8,0 0,22.6 22.6,0 0,22.599997 -22.6,0 0,45.2 22.6,0 0,-22.6 22.6,0 0,-22.6 22.6,0 0,-22.599997 22.6,0 0,-22.6 22.6,0 0,22.6 45.2,0 0,-22.6 22.5999,0 0,22.6 22.6,0 0,22.599997 -90.3999,0 0,-22.599997 -22.6,0 0,22.599997 -22.6,0 0,22.6 45.2,0 0,22.6 180.7999,0 0,-158.1998967 -67.8,0 0,22.5999997 45.2,0 0,22.5999 -45.2,0 0,22.6 -22.6,0 0,-22.6 22.6,0 0,-22.5999 -22.6,0 0,-22.5999997 22.6,0 0,-22.6004003 -22.6,0 0,-45.2 22.6,0 0,-22.5998 0,-22.600003 -22.6,0 0,22.600003 -22.6,0 0,-22.600003 -22.5999,0 0,22.600003 -22.6,0 0,22.5998 22.6,0 0,22.6 -22.6,0 0,-22.6 -22.6,0 0,22.6 -22.6,0 0,-22.6 22.6,0 0,-45.199803 z m 22.6,0 45.2,0 0,-22.6 22.5999,0 0,22.6 22.6,0 0,-45.2 22.6,0 0,-22.6 -22.6,0 -22.6,0 0,22.6 -67.7999,0 z m 67.7999,-67.8 0,-22.6 67.8,0 0,-22.6 -112.9999,0 0,22.6 22.6,0 0,22.6 z m 67.8,-22.6 0,45.2 22.6,0 0,22.6 -45.2,0 0,22.6 22.6,0 0,45.199803 22.6,0 0,22.6 22.6,0 0,-45.1998 -22.6,0 0,-22.600003 22.6,0 0,-67.8 -22.6,0 0,-22.6 z m -22.6,180.799803 22.6,0 0,-22.6 -22.6,0 z m -158.1999,158.200297 -22.6,0 0,22.6 22.6,0 z m -67.8,-67.799997 0,-45.1999 22.6,0 0,-22.5999997 -67.7999,0 0,-90.4002003 -90.39991,0 0,22.5998 45.19997,0 0,22.6 22.59999,0 0,22.6 -22.59999,0 0,22.6004003 22.59999,0 0,22.5999997 c 0,0 45.19995,0 45.19995,0 l 0,22.5999 -45.19995,0 0,-22.5999 -22.59999,0 0,22.5999 0,67.799997 22.59999,0 0,22.6 -22.59999,0 0,22.6 67.79994,0 0,-90.399997 z m -135.59981,-135.6003 -67.79997,0 0,-22.5998 -22.6,0 0,45.1998 22.6,0 22.59998,0 0,22.6 67.79997,0 0,-22.6 -22.59998,0 z m -67.79997,-22.5998 22.59998,0 0,-22.600003 67.79997,0 0,-22.6 -22.59998,0 0,-22.6 -45.19999,0 0,-22.6 -22.59998,0 0,-22.6 45.19997,0 0,22.6 22.6,0 0,-22.6 22.59998,0 0,-22.6 -112.99995,0 0,22.6 -22.59997,0 0,-22.6 -22.6,0 0,203.399803 22.6,0 0,-135.599803 22.59997,0 0,22.6 22.6,0 z m 67.79997,-90.400003 0,22.6 22.59998,0 0,22.6 45.19998,0 0,22.6 22.59995,0 0,-22.6 22.6,0 0,-22.6 -67.79994,0 0,-22.6 z m 112.99991,45.2 0,22.6 22.5999,0 0,-22.6 z m 0,22.6 -22.6,0 0,22.600003 22.6,0 z m 90.3999,158.200103 0,-22.5999 -22.6,0 0,22.5999 z m 67.8,-452.000103 0,158.2 158.1999,0 c 0,0 0,-158.2 0,-158.2 z m -384.19975,22.6 112.99994,0 0,113 -112.99994,0 z m 406.79975,0 112.9999,0 0,113 -112.9999,0 z m -384.19978,22.6 0,67.8 67.79997,0 0,-67.8 z m 406.79968,0 0,67.8 67.8,0 0,-67.8 z m -67.7999,338.999803 67.7999,0 0,67.8003 -67.7999,0 z m -384.19975,22.6004003 0,158.1998967 158.19992,0 0,-158.1998967 z m 406.79975,0 0,22.5999997 22.6,0 0,-22.5999997 z m -384.19975,22.5999997 112.99994,0 0,112.999897 -112.99994,0 z m 22.59997,22.5999 0,67.799997 67.79997,0 0,-67.799997 z m 158.19993,22.6 22.59995,0 0,22.6 -22.59995,0 z m 316.39975,22.6 22.6,0 0,45.199997 -45.2,0 0,-22.6 22.6,0 z"
       id="rect4273"
       inkscape:connector-curvature="0"
       sodipodi:nodetypes="ccccccccccccccccccccccccccccccccccccccccccccccccccccccccccccccccccccccccccccccccccccccccccccccccccccccccccccccccccccccccccccccccccccccccccccccccccccccccccccccccccccccccccccccccccccccccccccccccccccccccccccccccccccccccccccccccccccccccccccccccccccccccccccccccccccccccccccccccccccccccccccccccccccccccccccccccccccccccccccccccccccccccccccccccccccccccccccccccccccccccccccccccccccccccccccccccccccccccccccccccccccccccccc" />
  </g>
</svg>
