<?xml version="1.0" encoding="UTF-8" standalone="no"?>
<!-- Created with Inkscape (http://www.inkscape.org/) -->

<svg
   xmlns:dc="http://purl.org/dc/elements/1.1/"
   xmlns:cc="http://creativecommons.org/ns#"
   xmlns:rdf="http://www.w3.org/1999/02/22-rdf-syntax-ns#"
   xmlns:svg="http://www.w3.org/2000/svg"
   xmlns="http://www.w3.org/2000/svg"
   xmlns:sodipodi="http://sodipodi.sourceforge.net/DTD/sodipodi-0.dtd"
   xmlns:inkscape="http://www.inkscape.org/namespaces/inkscape"
   width="15cm"
   height="35.001518cm"
   viewBox="0 0 531.49606 1240.2112"
   id="svg4297"
   version="1.1"
   inkscape:version="0.91 r"
   sodipodi:docname="Nicelab_logo_ b&amp;w_v3.svg"
   inkscape:export-filename="/home/bertrand/Documents/Nicelab/nicelab-propaganda/logo/Version 3/Nicelab_logo_ b&amp;w_v3.png"
   inkscape:export-xdpi="39"
   inkscape:export-ydpi="39">
  <title
     id="title4961">Nicelab logo b&amp;w v3</title>
  <defs
     id="defs4299" />
  <sodipodi:namedview
     id="base"
     pagecolor="#ffffff"
     bordercolor="#666666"
     borderopacity="1.0"
     inkscape:pageopacity="0.0"
     inkscape:pageshadow="2"
     inkscape:zoom="0.678125"
     inkscape:cx="-59.393395"
     inkscape:cy="620.76652"
     inkscape:document-units="cm"
     inkscape:current-layer="layer1"
     showgrid="true"
     units="cm"
     fit-margin-top="1"
     fit-margin-right="1"
     fit-margin-bottom="1"
     fit-margin-left="1"
     inkscape:window-width="1615"
     inkscape:window-height="1026"
     inkscape:window-x="65"
     inkscape:window-y="24"
     inkscape:window-maximized="1"
     showguides="true"
     inkscape:guide-bbox="true">
    <inkscape:grid
       type="xygrid"
       id="grid4867"
       units="cm"
       spacingx="17.716536"
       spacingy="17.716534" />
    <sodipodi:guide
       position="407.48033,850.39363"
       orientation="0,1"
       id="guide4989" />
    <sodipodi:guide
       position="407.48033,832.6771"
       orientation="0,1"
       id="guide4991" />
    <sodipodi:guide
       position="425.19686,1080.7086"
       orientation="1,0"
       id="guide4993" />
    <sodipodi:guide
       position="106.29922,1080.7086"
       orientation="1,0"
       id="guide4995" />
  </sodipodi:namedview>
  <metadata
     id="metadata4302">
    <rdf:RDF>
      <cc:Work
         rdf:about="">
        <dc:format>image/svg+xml</dc:format>
        <dc:type
           rdf:resource="http://purl.org/dc/dcmitype/StillImage" />
        <dc:title>Nicelab logo b&amp;w v3</dc:title>
        <cc:license
           rdf:resource="http://creativecommons.org/licenses/by-sa/3.0/" />
        <dc:publisher>
          <cc:Agent>
            <dc:title>Nicelab.org</dc:title>
          </cc:Agent>
        </dc:publisher>
        <dc:contributor>
          <cc:Agent>
            <dc:title>Miniwark</dc:title>
          </cc:Agent>
        </dc:contributor>
        <dc:date>2016</dc:date>
        <dc:creator>
          <cc:Agent>
            <dc:title>Miniwark</dc:title>
          </cc:Agent>
        </dc:creator>
        <dc:rights>
          <cc:Agent>
            <dc:title>© 2016 Nicelab.org</dc:title>
          </cc:Agent>
        </dc:rights>
        <dc:description>Nicelab logo black &amp; white version 3</dc:description>
      </cc:Work>
      <cc:License
         rdf:about="http://creativecommons.org/licenses/by-sa/3.0/">
        <cc:permits
           rdf:resource="http://creativecommons.org/ns#Reproduction" />
        <cc:permits
           rdf:resource="http://creativecommons.org/ns#Distribution" />
        <cc:requires
           rdf:resource="http://creativecommons.org/ns#Notice" />
        <cc:requires
           rdf:resource="http://creativecommons.org/ns#Attribution" />
        <cc:permits
           rdf:resource="http://creativecommons.org/ns#DerivativeWorks" />
        <cc:requires
           rdf:resource="http://creativecommons.org/ns#ShareAlike" />
      </cc:License>
    </rdf:RDF>
  </metadata>
  <g
     inkscape:label="Calque 1"
     inkscape:groupmode="layer"
     id="layer1"
     transform="translate(491.46232,410.6006)">
    <path
       style="fill:#000000;fill-opacity:1;stroke:none"
       d="m -456.02924,-233.38147 0,106.29918 35.43306,0 0,850.39369 35.43308,0 0,-956.69287 z m 70.86614,956.69287 0,35.4331 70.86614,0 0,-35.4331 z m 70.86614,35.4331 0,35.43306 177.16536,0 0,-35.43306 z m 177.16536,0 70.866121,0 0,-35.4331 -70.866121,0 z m 70.866121,-35.4331 35.433061,0 0,-850.39369 35.4330996,0 0,-106.29918 -70.8661606,0 z"
       id="path3101-3"
       inkscape:connector-curvature="0"
       sodipodi:nodetypes="ccccccccccccccccccccccccccccc" />
    <path
       style="fill:#000000;fill-opacity:1;stroke:none"
       d="m -314.25092,-250.95596 0,17.71655 35.43307,0 0,-17.71655 -35.43307,0 z m 35.43307,17.71655 0,17.71651 17.71654,0 0,53.14961 -17.71654,0 0,17.71655 35.43309,0 0,-88.58267 -35.43309,0 z m 0,88.58267 -35.43307,0 0,17.71655 35.43307,0 0,-17.71655 z m -35.43307,0 0,-17.71655 -17.71653,0 0,-53.14961 17.71653,0 0,-17.71651 -35.43307,0 0,88.58267 35.43307,0 z"
       id="path3885-5"
       inkscape:connector-curvature="0" />
    <path
       style="fill:#000000;fill-opacity:1;stroke:none"
       d="m -172.51864,-375.16753 0,17.71651 53.14961,0 0,-17.71651 -53.14961,0 z m 53.14961,17.71651 0,17.71655 17.71655,0 0,70.86616 -17.71655,0 0,17.71651 35.433061,0 0,-106.29922 -35.433061,0 z m 0,106.29922 -53.14961,0 0,17.71655 53.14961,0 0,-17.71655 z m -53.14961,0 0,-17.71651 -17.71655,0 0,-70.86616 17.71655,0 0,-17.71655 -35.43306,0 0,106.29922 35.43306,0 z"
       id="path3911-3"
       inkscape:connector-curvature="0" />
    <path
       style="fill:#000000;fill-opacity:1;stroke:none"
       d="m -207.9517,-109.3216 0,17.716553 35.43306,0 0,-17.716553 -35.43306,0 z m 35.43306,17.716553 0,35.433061 17.71655,0 0,-35.433061 -17.71655,0 z m 0,35.433061 -35.43306,0 0,17.716549 35.43306,0 0,-17.716549 z m -35.43306,0 0,-35.433061 -17.71655,0 0,35.433061 17.71655,0 z"
       id="path3925-9"
       inkscape:connector-curvature="0" />
    <rect
       style="opacity:1;fill:#000000;fill-opacity:1;stroke:none;stroke-width:0.03543307;stroke-linejoin:miter;stroke-miterlimit:4;stroke-dasharray:none;stroke-dashoffset:0;stroke-opacity:1"
       id="rect4999"
       width="318.89761"
       height="17.716534"
       x="-385.16312"
       y="-20.783064" />
  </g>
</svg>
