<?xml version="1.0" encoding="UTF-8" standalone="no"?>
<!-- Created with Inkscape (http://www.inkscape.org/) -->

<svg
   xmlns:dc="http://purl.org/dc/elements/1.1/"
   xmlns:cc="http://creativecommons.org/ns#"
   xmlns:rdf="http://www.w3.org/1999/02/22-rdf-syntax-ns#"
   xmlns:svg="http://www.w3.org/2000/svg"
   xmlns="http://www.w3.org/2000/svg"
   xmlns:sodipodi="http://sodipodi.sourceforge.net/DTD/sodipodi-0.dtd"
   xmlns:inkscape="http://www.inkscape.org/namespaces/inkscape"
   width="15cm"
   height="35.001518cm"
   viewBox="0 0 531.49606 1240.2112"
   id="svg4297"
   version="1.1"
   inkscape:version="0.91 r"
   sodipodi:docname="Nicelab_logo_v3.svg"
   inkscape:export-filename="/home/bertrand/Documents/Nicelab/nicelab-propaganda/logo/Version 3/Nicelab_logo_v3.png"
   inkscape:export-xdpi="39"
   inkscape:export-ydpi="39">
  <title
     id="title4961">Nicelab logo v3</title>
  <defs
     id="defs4299" />
  <sodipodi:namedview
     id="base"
     pagecolor="#ffffff"
     bordercolor="#666666"
     borderopacity="1.0"
     inkscape:pageopacity="0.0"
     inkscape:pageshadow="2"
     inkscape:zoom="0.7"
     inkscape:cx="76.201366"
     inkscape:cy="586.59058"
     inkscape:document-units="cm"
     inkscape:current-layer="layer1"
     showgrid="true"
     units="cm"
     fit-margin-top="1"
     fit-margin-right="1"
     fit-margin-bottom="1"
     fit-margin-left="1"
     inkscape:window-width="1615"
     inkscape:window-height="1026"
     inkscape:window-x="65"
     inkscape:window-y="24"
     inkscape:window-maximized="1">
    <inkscape:grid
       type="xygrid"
       id="grid4867"
       units="cm"
       spacingx="17.716536"
       spacingy="17.716534" />
  </sodipodi:namedview>
  <metadata
     id="metadata4302">
    <rdf:RDF>
      <cc:Work
         rdf:about="">
        <dc:format>image/svg+xml</dc:format>
        <dc:type
           rdf:resource="http://purl.org/dc/dcmitype/StillImage" />
        <dc:title>Nicelab logo v3</dc:title>
        <cc:license
           rdf:resource="http://creativecommons.org/licenses/by-sa/3.0/" />
        <dc:publisher>
          <cc:Agent>
            <dc:title>Nicelab.org</dc:title>
          </cc:Agent>
        </dc:publisher>
        <dc:contributor>
          <cc:Agent>
            <dc:title>Miniwark</dc:title>
          </cc:Agent>
        </dc:contributor>
        <dc:date>2016</dc:date>
        <dc:creator>
          <cc:Agent>
            <dc:title>Miniwark</dc:title>
          </cc:Agent>
        </dc:creator>
        <dc:rights>
          <cc:Agent>
            <dc:title>© 2016 Nicelab.org</dc:title>
          </cc:Agent>
        </dc:rights>
        <dc:description>Nicelab logo version 3</dc:description>
      </cc:Work>
      <cc:License
         rdf:about="http://creativecommons.org/licenses/by-sa/3.0/">
        <cc:permits
           rdf:resource="http://creativecommons.org/ns#Reproduction" />
        <cc:permits
           rdf:resource="http://creativecommons.org/ns#Distribution" />
        <cc:requires
           rdf:resource="http://creativecommons.org/ns#Notice" />
        <cc:requires
           rdf:resource="http://creativecommons.org/ns#Attribution" />
        <cc:permits
           rdf:resource="http://creativecommons.org/ns#DerivativeWorks" />
        <cc:requires
           rdf:resource="http://creativecommons.org/ns#ShareAlike" />
      </cc:License>
    </rdf:RDF>
  </metadata>
  <g
     inkscape:label="Calque 1"
     inkscape:groupmode="layer"
     id="layer1"
     transform="translate(491.46232,410.6006)">
    <g
       id="g6034"
       transform="matrix(0.39166532,0,0,0.39166532,-642.05435,1338.722)">
      <path
         sodipodi:nodetypes="ccccccccccccccccccccccccccccc"
         inkscape:connector-curvature="0"
         id="path3101-3"
         d="m 474.95935,-4013.895 0,271.4031 90.46772,0 0,2171.2254 90.46773,0 0,-2442.6285 z m 180.93545,2442.6285 0,90.4678 180.93545,0 0,-90.4678 z m 180.93545,90.4678 0,90.4677 452.33865,0 0,-90.4677 z m 452.33865,0 180.9354,0 0,-90.4678 -180.9354,0 z m 180.9354,-90.4678 90.4677,0 0,-2171.2254 90.4678,0 0,-271.4031 -180.9355,0 z"
         style="fill:#000000;fill-opacity:1;stroke:none" />
      <path
         sodipodi:nodetypes="ccccc"
         inkscape:connector-curvature="0"
         id="path3879-7"
         d="m 655.8948,-3471.0887 814.2095,0 0,542.8064 -814.2095,0 z"
         style="fill:#89c4fd;fill-opacity:1;stroke:none" />
      <path
         sodipodi:nodetypes="ccccc"
         inkscape:connector-curvature="0"
         id="path3881-7"
         d="m 1470.1043,-2928.2823 0,542.8063 -814.2095,0 0,-542.8063 z"
         style="fill:#5caefe;fill-opacity:1;stroke:none" />
      <path
         sodipodi:nodetypes="ccccccccc"
         inkscape:connector-curvature="0"
         id="path3883-5"
         d="m 655.8948,-2385.476 814.2095,0 0,814.2095 -180.9354,0 0,90.4678 -452.33865,0 0,-90.4678 -180.93545,0 z"
         style="fill:#339afe;fill-opacity:1;stroke:none" />
      <path
         inkscape:connector-curvature="0"
         id="path3885-5"
         d="m 836.94781,-4058.7662 0,45.2339 90.46772,0 0,-45.2339 -90.46772,0 z m 90.46772,45.2339 0,45.2338 45.23387,0 0,135.7016 -45.23387,0 0,45.2339 90.46777,0 0,-226.1693 -90.46777,0 z m 0,226.1693 -90.46772,0 0,45.2339 90.46772,0 0,-45.2339 z m -90.46772,0 0,-45.2339 -45.23386,0 0,-135.7016 45.23386,0 0,-45.2338 -90.46773,0 0,226.1693 90.46773,0 z"
         style="fill:#339afe;fill-opacity:1;stroke:none" />
      <path
         inkscape:connector-curvature="0"
         id="path3911-3"
         d="m 1198.8187,-4375.9032 0,45.2338 135.7016,0 0,-45.2338 -135.7016,0 z m 135.7016,45.2338 0,45.2339 45.2339,0 0,180.9355 -45.2339,0 0,45.2338 90.4677,0 0,-271.4032 -90.4677,0 z m 0,271.4032 -135.7016,0 0,45.2339 135.7016,0 0,-45.2339 z m -135.7016,0 0,-45.2338 -45.2339,0 0,-180.9355 45.2339,0 0,-45.2339 -90.4677,0 0,271.4032 90.4677,0 z"
         style="fill:#339afe;fill-opacity:1;stroke:none" />
      <path
         inkscape:connector-curvature="0"
         id="path3925-9"
         d="m 1108.351,-3697.1453 0,45.2339 90.4677,0 0,-45.2339 -90.4677,0 z m 90.4677,45.2339 0,90.4677 45.2339,0 0,-90.4677 -45.2339,0 z m 0,90.4677 -90.4677,0 0,45.2339 90.4677,0 0,-45.2339 z m -90.4677,0 0,-90.4677 -45.2339,0 0,90.4677 45.2339,0 z"
         style="fill:#339afe;fill-opacity:1;stroke:none" />
    </g>
  </g>
</svg>
