<?xml version="1.0" encoding="UTF-8" standalone="no"?>
<!-- Created with Inkscape (http://www.inkscape.org/) -->

<svg
   xmlns:dc="http://purl.org/dc/elements/1.1/"
   xmlns:cc="http://creativecommons.org/ns#"
   xmlns:rdf="http://www.w3.org/1999/02/22-rdf-syntax-ns#"
   xmlns:svg="http://www.w3.org/2000/svg"
   xmlns="http://www.w3.org/2000/svg"
   xmlns:sodipodi="http://sodipodi.sourceforge.net/DTD/sodipodi-0.dtd"
   xmlns:inkscape="http://www.inkscape.org/namespaces/inkscape"
   width="59.400002cm"
   height="84.099998cm"
   viewBox="0 0 2104.7244 2979.9212"
   id="svg4407"
   version="1.1"
   inkscape:version="0.91 r"
   sodipodi:docname="Nicelab_2016_A1.svg">
  <title
     id="title5037">Nicelab.org 2016 A1</title>
  <defs
     id="defs4409" />
  <sodipodi:namedview
     id="base"
     pagecolor="#ffffff"
     bordercolor="#666666"
     borderopacity="1.0"
     inkscape:pageopacity="0.0"
     inkscape:pageshadow="2"
     inkscape:zoom="0.2033579"
     inkscape:cx="-144.13255"
     inkscape:cy="1272.7534"
     inkscape:document-units="cm"
     inkscape:current-layer="layer1"
     showgrid="true"
     inkscape:window-width="1615"
     inkscape:window-height="1026"
     inkscape:window-x="65"
     inkscape:window-y="24"
     inkscape:window-maximized="1"
     units="cm"
     showguides="true"
     inkscape:guide-bbox="true">
    <inkscape:grid
       type="xygrid"
       id="grid5035"
       units="cm"
       spacingx="17.716536"
       spacingy="17.716536" />
    <sodipodi:guide
       position="0,2352.1607"
       orientation="1,0"
       id="guide5206" />
  </sodipodi:namedview>
  <metadata
     id="metadata4412">
    <rdf:RDF>
      <cc:Work
         rdf:about="">
        <dc:format>image/svg+xml</dc:format>
        <dc:type
           rdf:resource="http://purl.org/dc/dcmitype/StillImage" />
        <dc:title>Nicelab.org 2016 A1</dc:title>
        <cc:license
           rdf:resource="http://creativecommons.org/licenses/by-sa/3.0/" />
        <dc:creator>
          <cc:Agent>
            <dc:title />
          </cc:Agent>
        </dc:creator>
        <dc:publisher>
          <cc:Agent>
            <dc:title>Nicelab.org</dc:title>
          </cc:Agent>
        </dc:publisher>
        <dc:rights>
          <cc:Agent>
            <dc:title>© 2016 Nicelab.org</dc:title>
          </cc:Agent>
        </dc:rights>
        <dc:contributor>
          <cc:Agent>
            <dc:title>Miniwark
Mazert</dc:title>
          </cc:Agent>
        </dc:contributor>
        <dc:date>2016</dc:date>
        <dc:description>Nicelab.org propaganda poster</dc:description>
      </cc:Work>
      <cc:License
         rdf:about="http://creativecommons.org/licenses/by-sa/3.0/">
        <cc:permits
           rdf:resource="http://creativecommons.org/ns#Reproduction" />
        <cc:permits
           rdf:resource="http://creativecommons.org/ns#Distribution" />
        <cc:requires
           rdf:resource="http://creativecommons.org/ns#Notice" />
        <cc:requires
           rdf:resource="http://creativecommons.org/ns#Attribution" />
        <cc:permits
           rdf:resource="http://creativecommons.org/ns#DerivativeWorks" />
        <cc:requires
           rdf:resource="http://creativecommons.org/ns#ShareAlike" />
      </cc:License>
    </rdf:RDF>
  </metadata>
  <g
     inkscape:label="Calque 1"
     inkscape:groupmode="layer"
     id="layer1"
     transform="translate(0,1927.5591)">
    <g
       id="g4209">
      <rect
         y="-1927.5592"
         x="0"
         height="588.18896"
         width="2104.7244"
         id="rect5247"
         style="opacity:1;fill:#339afe;fill-opacity:1;stroke:none;stroke-width:0.03543307;stroke-linejoin:miter;stroke-miterlimit:4;stroke-dasharray:none;stroke-dashoffset:0;stroke-opacity:1" />
      <g
         transform="matrix(0.39166532,0,0,0.39166532,1213.5812,533.91442)"
         id="g6034">
        <path
           style="fill:#000000;fill-opacity:1;stroke:none"
           d="m 474.95935,-4013.895 0,271.4031 90.46772,0 0,2171.2254 90.46773,0 0,-2442.6285 z m 180.93545,2442.6285 0,90.4678 180.93545,0 0,-90.4678 z m 180.93545,90.4678 0,90.4677 452.33865,0 0,-90.4677 z m 452.33865,0 180.9354,0 0,-90.4678 -180.9354,0 z m 180.9354,-90.4678 90.4677,0 0,-2171.2254 90.4678,0 0,-271.4031 -180.9355,0 z"
           id="path3101-3"
           inkscape:connector-curvature="0"
           sodipodi:nodetypes="ccccccccccccccccccccccccccccc" />
        <path
           style="fill:#89c4fd;fill-opacity:1;stroke:none"
           d="m 655.8948,-3471.0887 814.2095,0 0,542.8064 -814.2095,0 z"
           id="path3879-7"
           inkscape:connector-curvature="0"
           sodipodi:nodetypes="ccccc" />
        <path
           style="fill:#5caefe;fill-opacity:1;stroke:none"
           d="m 1470.1043,-2928.2823 0,542.8063 -814.2095,0 0,-542.8063 z"
           id="path3881-7"
           inkscape:connector-curvature="0"
           sodipodi:nodetypes="ccccc" />
        <path
           style="fill:#339afe;fill-opacity:1;stroke:none"
           d="m 655.8948,-2385.476 814.2095,0 0,814.2095 -180.9354,0 0,90.4678 -452.33865,0 0,-90.4678 -180.93545,0 z"
           id="path3883-5"
           inkscape:connector-curvature="0"
           sodipodi:nodetypes="ccccccccc" />
        <path
           style="fill:#339afe;fill-opacity:1;stroke:none"
           d="m 836.94781,-4058.7662 0,45.2339 90.46772,0 0,-45.2339 -90.46772,0 z m 90.46772,45.2339 0,45.2338 45.23387,0 0,135.7016 -45.23387,0 0,45.2339 90.46777,0 0,-226.1693 -90.46777,0 z m 0,226.1693 -90.46772,0 0,45.2339 90.46772,0 0,-45.2339 z m -90.46772,0 0,-45.2339 -45.23386,0 0,-135.7016 45.23386,0 0,-45.2338 -90.46773,0 0,226.1693 90.46773,0 z"
           id="path3885-5"
           inkscape:connector-curvature="0" />
        <path
           style="fill:#339afe;fill-opacity:1;stroke:none"
           d="m 1198.8187,-4375.9032 0,45.2338 135.7016,0 0,-45.2338 -135.7016,0 z m 135.7016,45.2338 0,45.2339 45.2339,0 0,180.9355 -45.2339,0 0,45.2338 90.4677,0 0,-271.4032 -90.4677,0 z m 0,271.4032 -135.7016,0 0,45.2339 135.7016,0 0,-45.2339 z m -135.7016,0 0,-45.2338 -45.2339,0 0,-180.9355 45.2339,0 0,-45.2339 -90.4677,0 0,271.4032 90.4677,0 z"
           id="path3911-3"
           inkscape:connector-curvature="0" />
        <path
           style="fill:#339afe;fill-opacity:1;stroke:none"
           d="m 1108.351,-3697.1453 0,45.2339 90.4677,0 0,-45.2339 -90.4677,0 z m 90.4677,45.2339 0,90.4677 45.2339,0 0,-90.4677 -45.2339,0 z m 0,90.4677 -90.4677,0 0,45.2339 90.4677,0 0,-45.2339 z m -90.4677,0 0,-90.4677 -45.2339,0 0,90.4677 45.2339,0 z"
           id="path3925-9"
           inkscape:connector-curvature="0" />
      </g>
      <g
         id="g5881">
        <path
           style="fill:#ffffff;fill-opacity:1;fill-rule:evenodd;stroke:none;stroke-width:1px;stroke-linecap:butt;stroke-linejoin:miter;stroke-opacity:1"
           d="m 212.59843,-1640.5512 0,-177.1653 141.73223,0 0,177.1653 -35.43306,0 0,-141.7323 -70.86611,0 0,141.7323 z"
           id="path5141"
           inkscape:connector-curvature="0" />
        <path
           style="fill:#ffffff;fill-opacity:1;fill-rule:evenodd;stroke:none;stroke-width:1px;stroke-linecap:butt;stroke-linejoin:miter;stroke-opacity:1"
           d="m 389.76372,-1817.7165 0,177.1653 35.43306,0 0,-177.1653 z"
           id="path5145"
           inkscape:connector-curvature="0" />
        <path
           style="fill:#ffffff;fill-opacity:1;fill-rule:evenodd;stroke:none;stroke-width:1px;stroke-linecap:butt;stroke-linejoin:miter;stroke-opacity:1"
           d="m 389.76372,-1853.1496 35.43306,0 0,-35.433 -35.43306,0 z"
           id="path5147"
           inkscape:connector-curvature="0" />
        <path
           style="fill:#ffffff;fill-opacity:1;fill-rule:evenodd;stroke:none;stroke-width:1px;stroke-linecap:butt;stroke-linejoin:miter;stroke-opacity:1"
           d="m 460.62983,-1817.7165 0,177.1653 141.73223,0 0,-35.4331 -106.29918,0 0,-106.2992 106.29918,0 0,-35.433 z"
           id="path5149"
           inkscape:connector-curvature="0" />
        <path
           style="fill:#ffffff;fill-opacity:1;fill-rule:evenodd;stroke:none;stroke-width:1px;stroke-linecap:butt;stroke-linejoin:miter;stroke-opacity:1"
           d="m 637.79537,-1817.7171 0,177.1658 141.73232,0 0,-35.4335 -106.29885,0 0,-35.4319 106.29885,0 0,-106.3004 -141.73232,0 z m 35.43347,35.4335 70.86538,0 0,35.4334 -70.86538,0 0,-35.4334 z"
           id="path5151"
           inkscape:connector-curvature="0" />
        <path
           style="fill:#ffffff;fill-opacity:1;fill-rule:evenodd;stroke:none;stroke-width:1px;stroke-linecap:butt;stroke-linejoin:miter;stroke-opacity:1"
           d="m 814.9604,-1888.5826 0,248.0314 106.29918,0 0,-35.4331 -70.86612,0 0,-212.5983 z"
           id="path5153"
           inkscape:connector-curvature="0" />
        <path
           style="fill:#ffffff;fill-opacity:1;fill-rule:evenodd;stroke:none;stroke-width:1px;stroke-linecap:butt;stroke-linejoin:miter;stroke-opacity:1"
           d="m 956.69194,-1817.7171 0,35.4335 106.30036,0 0,35.4334 -106.30036,0 0,106.2989 141.73226,0 0,-177.1658 -141.73226,0 z m 35.43345,106.3004 70.86691,0 0,35.4319 -70.86691,0 0,-35.4319 z"
           id="path5155"
           inkscape:connector-curvature="0" />
        <path
           style="fill:#ffffff;fill-opacity:1;fill-rule:evenodd;stroke:none;stroke-width:1px;stroke-linecap:butt;stroke-linejoin:miter;stroke-opacity:1"
           d="m 1133.8577,-1888.5825 0,248.0312 141.7323,0 0,-177.1658 -106.2988,0 0,-70.8654 -35.4335,0 z m 35.4335,106.2989 70.8653,0 0,106.2988 -70.8653,0 0,-106.2988 z"
           id="path5157"
           inkscape:connector-curvature="0" />
        <path
           style="fill:#ffffff;fill-opacity:1;fill-rule:evenodd;stroke:none;stroke-width:1px;stroke-linecap:butt;stroke-linejoin:miter;stroke-opacity:1"
           d="m 1346.4563,-1640.5512 0,-35.4331 -35.4331,0 0,35.4331 z"
           id="path5159"
           inkscape:connector-curvature="0" />
        <path
           style="fill:#ffffff;fill-opacity:1;fill-rule:evenodd;stroke:none;stroke-width:1px;stroke-linecap:butt;stroke-linejoin:miter;stroke-opacity:1"
           d="m 1381.8889,-1817.7171 0,177.1658 141.7323,0 0,-177.1658 -141.7323,0 z m 35.4335,35.4335 70.8654,0 0,106.2988 -70.8654,0 0,-106.2988 z"
           id="path5161"
           inkscape:connector-curvature="0" />
        <path
           style="fill:#ffffff;fill-opacity:1;fill-rule:evenodd;stroke:none;stroke-width:1px;stroke-linecap:butt;stroke-linejoin:miter;stroke-opacity:1"
           d="m 1559.0546,-1640.5512 35.433,0 0,-141.7323 70.8661,0 0,35.4331 35.4331,0 0,-70.8661 -141.7322,0 z"
           id="path5165"
           inkscape:connector-curvature="0" />
        <path
           style="fill:#ffffff;fill-opacity:1;fill-rule:evenodd;stroke:none;stroke-width:1px;stroke-linecap:butt;stroke-linejoin:miter;stroke-opacity:1"
           d="m 1736.2204,-1817.7171 0,177.1658 106.2989,0 0,35.4334 -106.2989,0 0,35.4335 141.7324,0 0,-248.0327 -141.7324,0 z m 35.432,35.4335 70.8669,0 0,106.2988 -70.8669,0 0,-106.2988 z"
           id="path5167"
           inkscape:connector-curvature="0" />
      </g>
      <rect
         y="-1569.6851"
         x="248.03149"
         height="159.44876"
         width="1452.7554"
         id="rect5220"
         style="opacity:1;fill:#ffffff;fill-opacity:1;stroke:none;stroke-width:0.03543307;stroke-linejoin:miter;stroke-miterlimit:4;stroke-dasharray:none;stroke-dashoffset:0;stroke-opacity:1" />
      <g
         id="g4288"
         transform="matrix(3.5433406,0,0,3.5433373,-1877.9868,-3154.8405)">
        <path
           style="fill:#339afe;fill-opacity:1;fill-rule:evenodd;stroke:none;stroke-width:1px;stroke-linecap:butt;stroke-linejoin:miter;stroke-opacity:1"
           d="m 610,452.36221 5,0 0,30 10,0 0,5 -15,0 z"
           id="path4541"
           inkscape:connector-curvature="0" />
        <path
           style="fill:#339afe;fill-opacity:1;fill-rule:evenodd;stroke:none;stroke-width:1px;stroke-linecap:butt;stroke-linejoin:miter;stroke-opacity:1"
           d="m 630,898.18945 0,5 15,0 0,5 -15,0 0,15 20,0 0,-25 -20,0 z m 5,15 10,0 0,5 -10,0 0,-5 z"
           transform="translate(0,-435.82677)"
           id="path4543"
           inkscape:connector-curvature="0" />
        <path
           style="fill:#339afe;fill-opacity:1;fill-rule:evenodd;stroke:none;stroke-width:1px;stroke-linecap:butt;stroke-linejoin:miter;stroke-opacity:1"
           d="m 655,888.18945 0,35 20,0 0,-25 -15,0 0,-10 -5,0 z m 5,15 10,0 0,15 -10,0 0,-15 z"
           transform="translate(0,-435.82677)"
           id="path4545"
           inkscape:connector-curvature="0" />
        <path
           style="fill:#339afe;fill-opacity:1;fill-rule:evenodd;stroke:none;stroke-width:1px;stroke-linecap:butt;stroke-linejoin:miter;stroke-opacity:1"
           d="m 680,898.18945 0,25 20,0 0,-25 -20,0 z m 5,5 10,0 0,15 -10,0 0,-15 z"
           transform="translate(0,-435.82677)"
           id="path4547"
           inkscape:connector-curvature="0" />
        <path
           style="fill:#339afe;fill-opacity:1;fill-rule:evenodd;stroke:none;stroke-width:1px;stroke-linecap:butt;stroke-linejoin:miter;stroke-opacity:1"
           d="m 705,487.36221 0,-25 20,0 0,10 -5,0 0,-5 -10,0 0,20 z"
           id="path4549"
           inkscape:connector-curvature="0" />
        <path
           style="fill:#339afe;fill-opacity:1;fill-rule:evenodd;stroke:none;stroke-width:1px;stroke-linecap:butt;stroke-linejoin:miter;stroke-opacity:1"
           d="m 730,898.18945 0,5 15,0 0,5 -15,0 0,15 20,0 0,-25 -20,0 z m 5,15 10,0 0,5 -10,0 0,-5 z"
           transform="translate(0,-435.82677)"
           id="path4543-9"
           inkscape:connector-curvature="0" />
        <path
           style="fill:#339afe;fill-opacity:1;fill-rule:evenodd;stroke:none;stroke-width:1px;stroke-linecap:butt;stroke-linejoin:miter;stroke-opacity:1"
           d="m 760,452.36221 0,10 5,0 0,5 -5,0 0,15 5,0 0,5 -10,0 0,-35 z"
           id="path4566"
           inkscape:connector-curvature="0" />
        <path
           style="fill:#339afe;fill-opacity:1;fill-rule:evenodd;stroke:none;stroke-width:1px;stroke-linecap:butt;stroke-linejoin:miter;stroke-opacity:1"
           d="m 770,898.18945 0,25 20,0 0,-25 -20,0 z m 5,5 10,0 0,15 -10,0 0,-15 z"
           transform="translate(0,-435.82677)"
           id="path4547-3"
           inkscape:connector-curvature="0" />
        <path
           style="fill:#339afe;fill-opacity:1;fill-rule:evenodd;stroke:none;stroke-width:1px;stroke-linecap:butt;stroke-linejoin:miter;stroke-opacity:1"
           d="m 795,888.18945 0,5 5,0 0,-5 -5,0 z m 0,10 0,25 5,0 0,-25 -5,0 z"
           transform="translate(0,-435.82677)"
           id="path4583"
           inkscape:connector-curvature="0" />
        <path
           style="fill:#339afe;fill-opacity:1;fill-rule:evenodd;stroke:none;stroke-width:1px;stroke-linecap:butt;stroke-linejoin:miter;stroke-opacity:1"
           d="m 805,487.36221 0,-25 20,0 0,10 -5,0 0,-5 -10,0 0,20 z"
           id="path4549-8"
           inkscape:connector-curvature="0" />
        <path
           style="fill:#339afe;fill-opacity:1;fill-rule:evenodd;stroke:none;stroke-width:1px;stroke-linecap:butt;stroke-linejoin:miter;stroke-opacity:1"
           d="m 830,898.18945 0,25 20,0 0,-5 -15,0 0,-5 15,0 0,-15 -20,0 z m 5,5 10,0 0,5 -10,0 0,-5 z"
           transform="translate(0,-435.82677)"
           id="path4600"
           inkscape:connector-curvature="0" />
        <path
           style="fill:#339afe;fill-opacity:1;fill-rule:evenodd;stroke:none;stroke-width:1px;stroke-linecap:butt;stroke-linejoin:miter;stroke-opacity:1"
           d="m 865,898.18945 0,25 20,0 0,-25 -20,0 z m 5,5 10,0 0,15 -10,0 0,-15 z"
           transform="translate(0,-435.82677)"
           id="path4547-3-9"
           inkscape:connector-curvature="0" />
        <path
           style="fill:#339afe;fill-opacity:1;fill-rule:evenodd;stroke:none;stroke-width:1px;stroke-linecap:butt;stroke-linejoin:miter;stroke-opacity:1"
           d="m 890,462.36221 0,25 20,0 0,-25 -5,0 0,20 -10,0 0,-20 z"
           id="path4617"
           inkscape:connector-curvature="0" />
        <path
           style="fill:#339afe;fill-opacity:1;fill-rule:evenodd;stroke:none;stroke-width:1px;stroke-linecap:butt;stroke-linejoin:miter;stroke-opacity:1"
           d="m 940,898.18945 0,25 20,0 0,-5 -15,0 0,-5 15,0 0,-15 -20,0 z m 5,5 10,0 0,5 -10,0 0,-5 z"
           transform="translate(0,-435.82677)"
           id="path4600-5"
           inkscape:connector-curvature="0" />
        <path
           style="fill:#339afe;fill-opacity:1;fill-rule:evenodd;stroke:none;stroke-width:1px;stroke-linecap:butt;stroke-linejoin:miter;stroke-opacity:1"
           d="m 965,487.36221 0,-25 20,0 0,10 -5,0 0,-5 -10,0 0,20 z"
           id="path4549-8-0"
           inkscape:connector-curvature="0" />
        <path
           style="fill:#339afe;fill-opacity:1;fill-rule:evenodd;stroke:none;stroke-width:1px;stroke-linecap:butt;stroke-linejoin:miter;stroke-opacity:1"
           d="m 995,452.36221 0,10 5,0 0,5 -5,0 0,15 5,0 0,5 -10,0 0,-35 z"
           id="path4566-6"
           inkscape:connector-curvature="0" />
        <path
           style="fill:#339afe;fill-opacity:1;fill-rule:evenodd;stroke:none;stroke-width:1px;stroke-linecap:butt;stroke-linejoin:miter;stroke-opacity:1"
           d="m 915,462.36221 0,20 5,0 0,-20 -5,0 z m 5,20 0,5 5,0 0,-5 -5,0 z m 5,0 5,0 0,-5 -5,0 0,5 z m 5,-5 5,0 0,-15 -5,0 0,15 z"
           id="path4277"
           inkscape:connector-curvature="0" />
      </g>
      <path
         sodipodi:nodetypes="ccccccccccccccccccccccccccccccccccccccccccccccccccccccccccccccccccccccccccccccccccccccccccccccccccccccccccccccccccccccccccccccccccccccccccccccccccccccccccccccccccccccccccccccccccccccccccccccccccccccccccccccccccccccccccccccccccccccccccccccccccccccccccccccccccccccccccccccccccccccccccccccccccccccccccccccccccccccccccccccccccccccccccccccccccccccccccccccccccccccccccccccccccccccccccccccccccccccccccccccccccccccccccc"
         inkscape:connector-curvature="0"
         id="rect4273"
         d="m 1523.622,751.18082 0,59.52759 59.5276,0 0,-59.52759 z m 76.5354,0 0,8.50394 8.504,0 0,25.51182 17.0078,0 0,-17.00788 17.0079,0 0,-8.50394 -8.504,0 0,-8.50394 -8.5039,0 0,8.50394 -8.5039,0 0,-8.50394 z m 42.5197,8.50394 8.5039,0 0,-8.50394 -8.5039,0 z m 8.5039,0 0,8.50394 8.504,0 0,8.50394 8.5039,0 0,-25.51182 -8.5039,0 0,8.50394 z m -25.5118,25.51182 0,8.50394 -8.5039,0 0,8.50394 8.5039,0 0,8.50395 -8.5039,0 0,-8.50395 -8.5039,0 0,8.50395 -8.504,0 0,-8.50395 8.504,0 0,-17.00788 -8.504,0 0,-17.00788 -8.5039,0 0,51.02365 8.5039,0 8.504,0 0,8.50394 -8.504,0 0,8.50394 17.0079,0 0,8.50394 8.5039,0 0,-17.00788 8.5039,0 0,17.00788 8.504,0 0,8.50394 8.5039,0 0,-8.50394 8.504,0 0,-8.50394 -8.504,0 -8.5039,0 0,-17.00788 -8.504,0 0,-17.00789 8.504,0 0,17.00789 8.5039,0 0,-17.00789 8.504,0 0,-8.50394 -25.5119,0 0,-8.50394 z m 8.5039,0 17.0079,0 0,-8.50394 -17.0079,0 z m 25.5119,8.50394 8.5039,0 0,-8.50394 -8.5039,0 z m 0,8.50394 0,17.00789 8.5039,0 0,-17.00789 z m -8.504,51.02365 0,8.50394 8.504,0 0,-8.50394 z m 8.504,8.50394 0,8.50394 -17.0079,0 0,-8.50394 -17.0079,0 0,8.50394 8.5039,0 0,8.50387 -8.5039,0 0,8.50394 0,8.50394 8.5039,0 0,-8.50394 8.504,0 0,-8.50394 8.5039,0 0,8.50394 -8.5039,0 0,8.50394 8.5039,0 0,8.5041 8.504,0 0,17.00784 -8.504,0 0,8.50394 -25.5118,0 0,8.50394 8.5039,0 0,8.50395 -8.5039,0 0,17.00792 8.5039,0 0,-8.504 8.504,0 0,-8.50392 8.5039,0 0,-8.50395 8.504,0 0,-8.50394 8.5039,0 0,8.50394 17.0079,0 0,-8.50394 8.5039,0 0,8.50394 8.5039,0 0,8.50395 -34.0157,0 0,-8.50395 -8.5039,0 0,8.50395 -8.504,0 0,8.50392 17.0079,0 0,8.504 68.0315,0 0,-59.52759 -25.5118,0 0,8.50393 17.0079,0 0,8.50391 -17.0079,0 0,8.50394 -8.504,0 0,-8.50394 8.504,0 0,-8.50391 -8.504,0 0,-8.50393 8.504,0 0,-8.5041 -8.504,0 0,-17.00788 8.504,0 0,-8.50387 0,-8.50394 -8.504,0 0,8.50394 -8.5039,0 0,-8.50394 -8.5039,0 0,8.50394 -8.5039,0 0,8.50387 8.5039,0 0,8.50394 -8.5039,0 0,-8.50394 -8.504,0 0,8.50394 -8.5039,0 0,-8.50394 8.5039,0 0,-17.00781 z m 8.5039,0 17.0079,0 0,-8.50394 8.5039,0 0,8.50394 8.5039,0 0,-17.00788 8.504,0 0,-8.50394 -8.504,0 -8.5039,0 0,8.50394 -25.5118,0 z m 25.5118,-25.51182 0,-8.50394 25.5118,0 0,-8.50394 -42.5196,0 0,8.50394 8.5039,0 0,8.50394 z m 25.5118,-8.50394 0,17.00788 8.504,0 0,8.50394 -17.0079,0 0,8.50394 8.5039,0 0,17.00781 8.504,0 0,8.50394 8.5039,0 0,-17.00781 -8.5039,0 0,-8.50394 8.5039,0 0,-25.51182 -8.5039,0 0,-8.50394 z m -8.5039,68.03145 8.5039,0 0,-8.50394 -8.5039,0 z m -59.5276,59.52769 -8.5039,0 0,8.504 8.5039,0 z m -25.5118,-25.51181 0,-17.00785 8.5039,0 0,-8.50393 -25.5117,0 0,-34.01585 -34.0158,0 0,8.50387 17.0079,0 0,8.50394 8.5039,0 0,8.50394 -8.5039,0 0,8.5041 8.5039,0 0,8.50393 c 0,0 17.0079,0 17.0079,0 l 0,8.50391 -17.0079,0 0,-8.50391 -8.5039,0 0,8.50391 0,25.51183 8.5039,0 0,8.50392 -8.5039,0 0,8.504 25.5118,0 0,-34.01581 z m -51.0236,-51.02376 -25.5118,0 0,-8.50387 -8.5039,0 0,17.00781 8.5039,0 8.5039,0 0,8.50394 25.5119,0 0,-8.50394 -8.504,0 z m -25.5118,-8.50387 8.5039,0 0,-8.50394 25.5119,0 0,-8.50394 -8.504,0 0,-8.50394 -17.0079,0 0,-8.50394 -8.5039,0 0,-8.50394 17.0079,0 0,8.50394 8.5039,0 0,-8.50394 8.504,0 0,-8.50394 -42.5197,0 0,8.50394 -8.504,0 0,-8.50394 -8.5039,0 0,76.53539 8.5039,0 0,-51.02357 8.504,0 0,8.50394 8.5039,0 z m 25.5118,-34.01576 0,8.50394 8.504,0 0,8.50394 17.0078,0 0,8.50394 8.504,0 0,-8.50394 8.5039,0 0,-8.50394 -25.5118,0 0,-8.50394 z m 42.5197,17.00788 0,8.50394 8.5039,0 0,-8.50394 z m 0,8.50394 -8.5039,0 0,8.50394 8.5039,0 z m 34.0157,59.52763 0,-8.50391 -8.5039,0 0,8.50391 z m 25.5119,-170.07886 0,59.52759 59.5275,0 c 0,0 0,-59.52759 0,-59.52759 z m -144.567,8.50394 42.5197,0 0,42.5197 -42.5197,0 z m 153.0709,0 42.5197,0 0,42.5197 -42.5197,0 z m -144.5669,8.50394 0,25.51182 25.5118,0 0,-25.51182 z m 153.0708,0 0,25.51182 25.5118,0 0,-25.51182 z m -25.5118,127.55904 25.5118,0 0,25.51194 -25.5118,0 z m -144.5669,8.5041 0,59.52759 59.5276,0 0,-59.52759 z m 153.0709,0 0,8.50393 8.5039,0 0,-8.50393 z m -144.567,8.50393 42.5197,0 0,42.51966 -42.5197,0 z m 8.504,8.50391 0,25.51183 25.5118,0 0,-25.51183 z m 59.5275,8.50394 8.504,0 0,8.50394 -8.504,0 z m 119.0551,8.50394 8.504,0 0,17.00787 -17.0079,0 0,-8.50392 8.5039,0 z"
         style="opacity:1;fill:#ff9700;fill-opacity:1;stroke:none;stroke-width:0.5;stroke-linejoin:miter;stroke-miterlimit:4;stroke-dasharray:none;stroke-opacity:1" />
      <g
         transform="matrix(2,0,0,2,141.73228,2384.6458)"
         id="g5856">
        <path
           style="fill:#339afe;fill-opacity:1;fill-rule:evenodd;stroke:none;stroke-width:1px;stroke-linecap:butt;stroke-linejoin:miter;stroke-opacity:1"
           d="m 159.44882,-949.60712 0,17.7167 53.1501,0 0,17.7167 -53.1501,0 0,53.15 70.86681,0 0,-88.5834 -70.86681,0 z m 17.7167,53.15 35.4334,0 0,17.7167 -35.4334,0 0,-17.7167 z"
           id="path4543-0"
           inkscape:connector-curvature="0" />
        <path
           style="fill:#339afe;fill-opacity:1;fill-rule:evenodd;stroke:none;stroke-width:1px;stroke-linecap:butt;stroke-linejoin:miter;stroke-opacity:1"
           d="m 248.0315,-985.04048 0,124.01676 70.86682,0 0,-88.5834 -53.15012,0 0,-35.43336 -17.7167,0 z m 17.7167,53.15006 35.43341,0 0,53.15 -35.43341,0 0,-53.15 z"
           id="path4545-4"
           inkscape:connector-curvature="0" />
        <path
           style="fill:#339afe;fill-opacity:1;fill-rule:evenodd;stroke:none;stroke-width:1px;stroke-linecap:butt;stroke-linejoin:miter;stroke-opacity:1"
           d="m 336.61417,-861.02372 0,-88.5834 70.86681,0 0,35.4333 -17.7167,0 0,-17.7166 -35.4334,0 0,70.8667 z"
           id="path4549-5"
           inkscape:connector-curvature="0" />
        <path
           style="fill:#339afe;fill-opacity:1;fill-rule:evenodd;stroke:none;stroke-width:1px;stroke-linecap:butt;stroke-linejoin:miter;stroke-opacity:1"
           d="m 425.19685,-985.04055 0,17.7167 17.7167,0 0,-17.7167 -17.7167,0 z m 0,35.43343 0,88.5834 17.7167,0 0,-88.5834 -17.7167,0 z"
           id="path4583-4-0"
           inkscape:connector-curvature="0" />
        <path
           style="fill:#339afe;fill-opacity:1;fill-rule:evenodd;stroke:none;stroke-width:1px;stroke-linecap:butt;stroke-linejoin:miter;stroke-opacity:1"
           d="m 549.2126,-949.60713 0,88.58341 70.86682,0 0,-88.58341 -17.71671,0 0,70.86671 -35.4334,0 0,-70.86671 z"
           id="path4617-5-8"
           inkscape:connector-curvature="0" />
        <path
           style="fill:#339afe;fill-opacity:1;fill-rule:evenodd;stroke:none;stroke-width:1px;stroke-linecap:butt;stroke-linejoin:miter;stroke-opacity:1"
           d="m 726.37795,-861.02372 0,-88.58335 70.86681,0 0,35.4333 -17.7167,0 0,-17.7166 -35.4334,0 0,70.86665 z"
           id="path4549-8-5-6"
           inkscape:connector-curvature="0" />
        <path
           style="fill:#339afe;fill-opacity:1;fill-rule:evenodd;stroke:none;stroke-width:1px;stroke-linecap:butt;stroke-linejoin:miter;stroke-opacity:1"
           d="m 637.79528,-949.60712 0,88.5834 70.86681,0 0,-17.7167 -53.15011,0 0,-17.7167 53.15011,0 0,-53.15 -70.86681,0 z m 17.7167,17.7167 35.43341,0 0,17.7167 -35.43341,0 0,-17.7167 z"
           id="path4600-9-4"
           inkscape:connector-curvature="0" />
        <path
           style="fill:#339afe;fill-opacity:1;fill-rule:evenodd;stroke:none;stroke-width:1px;stroke-linecap:butt;stroke-linejoin:miter;stroke-opacity:1"
           d="m 531.49674,-825.59065 0,-124.0168 -70.86682,0 0,88.5834 53.15012,0 0,35.4334 17.7167,0 z m -17.7167,-53.1501 -35.43341,0 0,-53.15 35.43341,0 0,53.15 z"
           id="path4545-4-2"
           inkscape:connector-curvature="0" />
        <path
           style="fill:#339afe;fill-opacity:1;fill-rule:evenodd;stroke:none;stroke-width:1px;stroke-linecap:butt;stroke-linejoin:miter;stroke-opacity:1"
           d="m 88.582677,-861.02372 0,-124.01576 53.149613,0 0,17.71654 -35.43307,0 0,17.71653 17.71654,0 0,17.71654 -17.71654,0 0,70.86615 z"
           id="path5748"
           inkscape:connector-curvature="0" />
      </g>
      <g
         transform="matrix(2,0,0,2,368.50394,1959.4489)"
         id="g5876">
        <path
           style="fill:#339afe;fill-opacity:1;fill-rule:evenodd;stroke:none;stroke-width:1px;stroke-linecap:butt;stroke-linejoin:miter;stroke-opacity:1"
           d="m 797.24396,-648.4253 0,-17.7165 -17.7164,0 0,17.7165 z"
           id="path5159-8"
           inkscape:connector-curvature="0" />
        <path
           style="fill:#339afe;fill-opacity:1;fill-rule:evenodd;stroke:none;stroke-width:1px;stroke-linecap:butt;stroke-linejoin:miter;stroke-opacity:1"
           d="m 832.67703,-648.4253 0,-17.7165 -17.7164,0 0,17.7165 z"
           id="path5159-8-6"
           inkscape:connector-curvature="0" />
        <path
           style="fill:#339afe;fill-opacity:1;fill-rule:evenodd;stroke:none;stroke-width:1px;stroke-linecap:butt;stroke-linejoin:miter;stroke-opacity:1"
           d="m 868.1101,-648.4253 0,-17.7165 -17.7164,0 0,17.7165 z"
           id="path5159-8-4"
           inkscape:connector-curvature="0" />
      </g>
      <g
         transform="matrix(2,0,0,2,-177.16536,1782.2836)"
         id="g5848">
        <path
           style="fill:#339afe;fill-opacity:1;fill-rule:evenodd;stroke:none;stroke-width:1px;stroke-linecap:butt;stroke-linejoin:miter;stroke-opacity:1"
           d="m 177.16535,-1073.6229 0,17.7167 53.15011,0 0,17.7167 -53.15011,0 0,53.15003 70.86681,0 0,-88.58343 -70.86681,0 z m 17.7167,53.15 35.43341,0 0,17.7167 -35.43341,0 0,-17.7167 z"
           id="path4543-9-1"
           inkscape:connector-curvature="0" />
        <path
           style="fill:#339afe;fill-opacity:1;fill-rule:evenodd;stroke:none;stroke-width:1px;stroke-linecap:butt;stroke-linejoin:miter;stroke-opacity:1"
           d="m 531.49606,-985.03947 0,-88.58333 70.86681,0 0,35.4333 -17.7167,0 0,-17.7166 -35.4334,0 0,70.86663 z"
           id="path4549-8-5-6-3"
           inkscape:connector-curvature="0" />
        <path
           style="fill:#339afe;fill-opacity:1;fill-rule:evenodd;stroke:none;stroke-width:1px;stroke-linecap:butt;stroke-linejoin:miter;stroke-opacity:1"
           d="m 442.91339,-1073.6228 0,88.58333 70.86681,0 0,-17.71663 -53.15011,0 0,-17.7167 53.15011,0 0,-53.15 -70.86681,0 z m 17.7167,17.7167 35.43341,0 0,17.7167 -35.43341,0 0,-17.7167 z"
           id="path4600-9-4-6"
           inkscape:connector-curvature="0" />
        <path
           style="fill:#339afe;fill-opacity:1;fill-rule:evenodd;stroke:none;stroke-width:1px;stroke-linecap:butt;stroke-linejoin:miter;stroke-opacity:1"
           d="m 265.74803,-1073.6221 0,88.58263 70.86614,0 0,-17.71653 -53.14961,0 0,-53.1496 53.14961,0 0,-17.7165 z"
           id="path5149-1"
           inkscape:connector-curvature="0" />
        <path
           style="fill:#339afe;fill-opacity:1;fill-rule:evenodd;stroke:none;stroke-width:1px;stroke-linecap:butt;stroke-linejoin:miter;stroke-opacity:1"
           d="m 88.582679,-985.03947 0,-124.01563 17.716531,0 0,35.433 53.14961,0 0,88.58263 -17.71653,0 0,-70.86603 -35.43308,0 0,70.86603 z"
           id="path5765"
           inkscape:connector-curvature="0" />
        <path
           style="fill:#339afe;fill-opacity:1;fill-rule:evenodd;stroke:none;stroke-width:1px;stroke-linecap:butt;stroke-linejoin:miter;stroke-opacity:1"
           d="m 354.33071,-1109.055 0,124.01553 17.71679,0 0,-35.43353 17.7168,0 0,-17.7168 -17.7168,0 0,-70.8652 -17.71679,0 z m 35.43359,70.8652 17.7168,0 0,-17.7148 -17.7168,0 0,17.7148 z m 17.7168,-17.7148 17.71679,0 0,-17.7168 -17.71679,0 0,17.7168 z m -17.7168,35.4316 0,17.7168 17.7168,0 0,-17.7168 -17.7168,0 z m 17.7168,17.7168 0,17.71673 17.71679,0 0,-17.71673 -17.71679,0 z"
           id="path5159-8-41"
           inkscape:connector-curvature="0" />
      </g>
      <g
         transform="translate(177.16535,0)"
         id="g5917">
        <path
           style="fill:#339afe;fill-opacity:1;fill-rule:evenodd;stroke:none;stroke-width:1px;stroke-linecap:butt;stroke-linejoin:miter;stroke-opacity:1"
           d="m 814.96097,-10.63216 0,70.86682 35.4334,0 0,35.4334 -35.4334,0 0,106.3 35.4334,0 0,35.4334 -70.86682,0 0,-248.03362 z"
           id="path4566-2"
           inkscape:connector-curvature="0" />
        <path
           style="fill:#339afe;fill-opacity:1;fill-rule:evenodd;stroke:none;stroke-width:1px;stroke-linecap:butt;stroke-linejoin:miter;stroke-opacity:1"
           d="m 0,-10.63214 0,35.4334 35.433399,0 0,-35.4334 -35.433399,0 z m 0,70.8668 0,177.1668 35.433399,0 0,-177.1668 -35.433399,0 z"
           id="path4583-4"
           inkscape:connector-curvature="0" />
        <path
           style="fill:#339afe;fill-opacity:1;fill-rule:evenodd;stroke:none;stroke-width:1px;stroke-linecap:butt;stroke-linejoin:miter;stroke-opacity:1"
           d="m 1062.9921,237.40146 0,-177.1668 141.7336,0 0,70.8666 -35.4334,0 0,-35.4332 -70.8668,0 0,141.7334 z"
           id="path4549-8-5"
           inkscape:connector-curvature="0" />
        <path
           style="fill:#339afe;fill-opacity:1;fill-rule:evenodd;stroke:none;stroke-width:1px;stroke-linecap:butt;stroke-linejoin:miter;stroke-opacity:1"
           d="m 885.82675,60.23466 0,177.1668 141.73365,0 0,-35.4334 -106.30025,0 0,-35.4334 106.30025,0 0,-106.3 -141.73365,0 z m 35.4334,35.4334 70.86682,0 0,35.4334 -70.86682,0 0,-35.4334 z"
           id="path4600-9"
           inkscape:connector-curvature="0" />
        <path
           style="fill:#339afe;fill-opacity:1;fill-rule:evenodd;stroke:none;stroke-width:1px;stroke-linecap:butt;stroke-linejoin:miter;stroke-opacity:1"
           d="m 744.09583,237.40146 0,-177.1668 -141.73364,0 0,177.1668 35.43342,0 0,-141.7334 70.8668,0 0,141.7334 z"
           id="path4617-5"
           inkscape:connector-curvature="0" />
        <path
           style="fill:#339afe;fill-opacity:1;fill-rule:evenodd;stroke:none;stroke-width:1px;stroke-linecap:butt;stroke-linejoin:miter;stroke-opacity:1"
           d="m 425.19683,60.23466 0,177.1668 141.7336,0 0,-35.4334 -106.3002,0 0,-35.4334 106.3002,0 0,-106.3 -141.7336,0 z m 35.4334,35.4334 70.8668,0 0,35.4334 -70.8668,0 0,-35.4334 z"
           id="path4600-5-6"
           inkscape:connector-curvature="0" />
        <path
           style="fill:#339afe;fill-opacity:1;fill-rule:evenodd;stroke:none;stroke-width:1px;stroke-linecap:butt;stroke-linejoin:miter;stroke-opacity:1"
           d="m 248.03149,60.23466 0,141.7334 35.4334,0 0,-141.7334 -35.4334,0 z m 35.4334,141.7334 0,35.4334 35.43342,0 0,-35.4334 -35.43342,0 z m 35.43342,0 35.43348,0 0,-35.4334 -35.43348,0 0,35.4334 z m 35.43348,-35.4334 35.4334,0 0,-106.3 -35.4334,0 0,106.3 z"
           id="path4277-8"
           inkscape:connector-curvature="0" />
        <path
           style="fill:#339afe;fill-opacity:1;fill-rule:evenodd;stroke:none;stroke-width:1px;stroke-linecap:butt;stroke-linejoin:miter;stroke-opacity:1"
           d="m 212.59978,237.40148 0,-177.166808 -141.733638,0 0,177.166808 35.433418,0 0,-141.733408 70.8668,0 0,141.733408 z"
           id="path4617-5-3"
           inkscape:connector-curvature="0" />
      </g>
    </g>
  </g>
</svg>
