<?xml version="1.0" encoding="UTF-8" standalone="no"?>
<!-- Created with Inkscape (http://www.inkscape.org/) -->

<svg
   xmlns:dc="http://purl.org/dc/elements/1.1/"
   xmlns:cc="http://creativecommons.org/ns#"
   xmlns:rdf="http://www.w3.org/1999/02/22-rdf-syntax-ns#"
   xmlns:svg="http://www.w3.org/2000/svg"
   xmlns="http://www.w3.org/2000/svg"
   xmlns:sodipodi="http://sodipodi.sourceforge.net/DTD/sodipodi-0.dtd"
   xmlns:inkscape="http://www.inkscape.org/namespaces/inkscape"
   width="60cm"
   height="160cm"
   viewBox="0 0 2125.9843 5669.2912"
   id="svg2"
   version="1.1"
   inkscape:version="0.91 r"
   sodipodi:docname="Nicelab_2016_60x160.svg">
  <title
     id="title4170">Nicelab 2016 60x160</title>
  <defs
     id="defs4" />
  <sodipodi:namedview
     id="base"
     pagecolor="#ffffff"
     bordercolor="#666666"
     borderopacity="1.0"
     inkscape:pageopacity="0.0"
     inkscape:pageshadow="2"
     inkscape:zoom="0.10461426"
     inkscape:cx="611.74469"
     inkscape:cy="2634.9136"
     inkscape:document-units="mm"
     inkscape:current-layer="layer1"
     showgrid="true"
     units="cm"
     inkscape:window-width="1615"
     inkscape:window-height="1026"
     inkscape:window-x="65"
     inkscape:window-y="24"
     inkscape:window-maximized="1"
     showguides="true"
     inkscape:guide-bbox="true">
    <inkscape:grid
       type="xygrid"
       id="grid4136"
       units="cm"
       spacingx="22.616931"
       spacingy="22.616928" />
    <sodipodi:guide
       position="-45.233862,6966.014"
       orientation="0,1"
       id="guide5837" />
    <sodipodi:guide
       position="90.467724,7146.9494"
       orientation="1,0"
       id="guide5980" />
    <sodipodi:guide
       position="474.95555,5201.8934"
       orientation="1,0"
       id="guide6015" />
    <sodipodi:guide
       position="1651.036,5201.8934"
       orientation="1,0"
       id="guide6017" />
  </sodipodi:namedview>
  <metadata
     id="metadata7">
    <rdf:RDF>
      <cc:Work
         rdf:about="">
        <dc:format>image/svg+xml</dc:format>
        <dc:type
           rdf:resource="http://purl.org/dc/dcmitype/StillImage" />
        <dc:title>Nicelab 2016 60x160</dc:title>
        <cc:license
           rdf:resource="http://creativecommons.org/licenses/by-nc-sa/3.0/" />
        <dc:date>2016</dc:date>
        <dc:creator>
          <cc:Agent>
            <dc:title>Miniwark</dc:title>
          </cc:Agent>
        </dc:creator>
        <dc:contributor>
          <cc:Agent>
            <dc:title>Miniwark</dc:title>
          </cc:Agent>
        </dc:contributor>
        <dc:publisher>
          <cc:Agent>
            <dc:title>Nicelab.org</dc:title>
          </cc:Agent>
        </dc:publisher>
        <dc:rights>
          <cc:Agent>
            <dc:title>© 2016 Nicelab.org</dc:title>
          </cc:Agent>
        </dc:rights>
        <dc:description>Nicelab.org propaganda poster</dc:description>
      </cc:Work>
      <cc:License
         rdf:about="http://creativecommons.org/licenses/by-nc-sa/3.0/">
        <cc:permits
           rdf:resource="http://creativecommons.org/ns#Reproduction" />
        <cc:permits
           rdf:resource="http://creativecommons.org/ns#Distribution" />
        <cc:requires
           rdf:resource="http://creativecommons.org/ns#Notice" />
        <cc:requires
           rdf:resource="http://creativecommons.org/ns#Attribution" />
        <cc:prohibits
           rdf:resource="http://creativecommons.org/ns#CommercialUse" />
        <cc:permits
           rdf:resource="http://creativecommons.org/ns#DerivativeWorks" />
        <cc:requires
           rdf:resource="http://creativecommons.org/ns#ShareAlike" />
      </cc:License>
    </rdf:RDF>
  </metadata>
  <g
     inkscape:label="Calque 1"
     inkscape:groupmode="layer"
     id="layer1"
     transform="translate(0,4616.9298)">
    <path
       inkscape:connector-curvature="0"
       style="opacity:1;fill:#339afe;fill-opacity:1;stroke:none;stroke-width:0.5;stroke-linejoin:miter;stroke-miterlimit:4;stroke-dasharray:none;stroke-opacity:1"
       d="m 0,-4375.4037 0,90.4673 180.93486,0 0,226.1684 -45.23374,0 0,-180.9347 -90.467401,0 0,180.9347 -45.233719,0 0,90.4676 1945.0497,0 0,-45.1275 135.7011,0 0,-45.2336 -135.7011,0 0,-226.1685 180.9348,0 0,-90.5737 -904.6745,0 0,90.4673 135.7013,0 0,226.1684 -180.935,0 0,-316.6357 -361.86965,0 0,271.4021 90.4674,0 0,45.2336 -135.70109,0 0,-316.6357 -497.5707,0 0,45.2335 -45.23369,0 0,-45.2335 -226.16857,0 z m 1718.8813,90.3438 180.9348,0 0,90.4674 -45.2339,0 0,-45.2337 -90.4672,0 0,180.9347 -45.2337,0 0,-226.1684 z m -1492.71273,0.1226 45.23369,0 0,226.1684 -45.23369,0 0,-226.1684 z m 90.46741,0 180.93478,0 0,45.2337 -135.70109,0 0,135.7011 135.70109,0 0,45.2336 -180.93478,0 0,-226.1684 z m 226.16849,0 180.93477,0 0,135.701 -135.70101,0 0,45.2338 135.70101,0 0,45.2336 -180.93477,0 0,-226.1684 z m 407.10329,0 180.93474,0 0,226.1684 -180.93474,0 0,-135.7011 135.70114,0 0,-45.2336 -135.70114,0 0,-45.2337 z m 542.80444,0 180.9349,0 0,226.1684 -180.9349,0 0,-226.1684 z m -904.67397,45.2337 0,45.2336 90.46732,0 0,-45.2336 -90.46732,0 z m 633.27177,0 0,135.7011 90.4674,0 0,-135.7011 -90.4674,0 z m 316.636,0 0,135.7011 90.4674,0 0,-135.7011 -90.4674,0 z m 452.3375,0.1034 0,135.7013 90.4673,0 0,-135.7013 -90.4673,0 z m -995.14205,90.3613 0,45.2335 90.46745,0 0,-45.2335 -90.46745,0 z m 407.10345,45.2335 45.2336,0 0,45.2338 -45.2336,0 0,-45.2338 z"
       id="rect6672" />
    <g
       transform="matrix(4.523431,0,0,4.5234266,-2668.8252,-5969.5454)"
       id="g4288">
      <path
         inkscape:connector-curvature="0"
         id="path4541"
         d="m 610,452.36221 5,0 0,30 10,0 0,5 -15,0 z"
         style="fill:#339afe;fill-opacity:1;fill-rule:evenodd;stroke:none;stroke-width:1px;stroke-linecap:butt;stroke-linejoin:miter;stroke-opacity:1" />
      <path
         inkscape:connector-curvature="0"
         id="path4543"
         transform="translate(0,-435.82677)"
         d="m 630,898.18945 0,5 15,0 0,5 -15,0 0,15 20,0 0,-25 -20,0 z m 5,15 10,0 0,5 -10,0 0,-5 z"
         style="fill:#339afe;fill-opacity:1;fill-rule:evenodd;stroke:none;stroke-width:1px;stroke-linecap:butt;stroke-linejoin:miter;stroke-opacity:1" />
      <path
         inkscape:connector-curvature="0"
         id="path4545"
         transform="translate(0,-435.82677)"
         d="m 655,888.18945 0,35 20,0 0,-25 -15,0 0,-10 -5,0 z m 5,15 10,0 0,15 -10,0 0,-15 z"
         style="fill:#339afe;fill-opacity:1;fill-rule:evenodd;stroke:none;stroke-width:1px;stroke-linecap:butt;stroke-linejoin:miter;stroke-opacity:1" />
      <path
         inkscape:connector-curvature="0"
         id="path4547"
         transform="translate(0,-435.82677)"
         d="m 680,898.18945 0,25 20,0 0,-25 -20,0 z m 5,5 10,0 0,15 -10,0 0,-15 z"
         style="fill:#339afe;fill-opacity:1;fill-rule:evenodd;stroke:none;stroke-width:1px;stroke-linecap:butt;stroke-linejoin:miter;stroke-opacity:1" />
      <path
         inkscape:connector-curvature="0"
         id="path4549"
         d="m 705,487.36221 0,-25 20,0 0,10 -5,0 0,-5 -10,0 0,20 z"
         style="fill:#339afe;fill-opacity:1;fill-rule:evenodd;stroke:none;stroke-width:1px;stroke-linecap:butt;stroke-linejoin:miter;stroke-opacity:1" />
      <path
         inkscape:connector-curvature="0"
         id="path4543-9"
         transform="translate(0,-435.82677)"
         d="m 730,898.18945 0,5 15,0 0,5 -15,0 0,15 20,0 0,-25 -20,0 z m 5,15 10,0 0,5 -10,0 0,-5 z"
         style="fill:#339afe;fill-opacity:1;fill-rule:evenodd;stroke:none;stroke-width:1px;stroke-linecap:butt;stroke-linejoin:miter;stroke-opacity:1" />
      <path
         inkscape:connector-curvature="0"
         id="path4566"
         d="m 760,452.36221 0,10 5,0 0,5 -5,0 0,15 5,0 0,5 -10,0 0,-35 z"
         style="fill:#339afe;fill-opacity:1;fill-rule:evenodd;stroke:none;stroke-width:1px;stroke-linecap:butt;stroke-linejoin:miter;stroke-opacity:1" />
      <path
         inkscape:connector-curvature="0"
         id="path4547-3"
         transform="translate(0,-435.82677)"
         d="m 770,898.18945 0,25 20,0 0,-25 -20,0 z m 5,5 10,0 0,15 -10,0 0,-15 z"
         style="fill:#339afe;fill-opacity:1;fill-rule:evenodd;stroke:none;stroke-width:1px;stroke-linecap:butt;stroke-linejoin:miter;stroke-opacity:1" />
      <path
         inkscape:connector-curvature="0"
         id="path4583"
         transform="translate(0,-435.82677)"
         d="m 795,888.18945 0,5 5,0 0,-5 -5,0 z m 0,10 0,25 5,0 0,-25 -5,0 z"
         style="fill:#339afe;fill-opacity:1;fill-rule:evenodd;stroke:none;stroke-width:1px;stroke-linecap:butt;stroke-linejoin:miter;stroke-opacity:1" />
      <path
         inkscape:connector-curvature="0"
         id="path4549-8"
         d="m 805,487.36221 0,-25 20,0 0,10 -5,0 0,-5 -10,0 0,20 z"
         style="fill:#339afe;fill-opacity:1;fill-rule:evenodd;stroke:none;stroke-width:1px;stroke-linecap:butt;stroke-linejoin:miter;stroke-opacity:1" />
      <path
         inkscape:connector-curvature="0"
         id="path4600"
         transform="translate(0,-435.82677)"
         d="m 830,898.18945 0,25 20,0 0,-5 -15,0 0,-5 15,0 0,-15 -20,0 z m 5,5 10,0 0,5 -10,0 0,-5 z"
         style="fill:#339afe;fill-opacity:1;fill-rule:evenodd;stroke:none;stroke-width:1px;stroke-linecap:butt;stroke-linejoin:miter;stroke-opacity:1" />
      <path
         inkscape:connector-curvature="0"
         id="path4547-3-9"
         transform="translate(0,-435.82677)"
         d="m 865,898.18945 0,25 20,0 0,-25 -20,0 z m 5,5 10,0 0,15 -10,0 0,-15 z"
         style="fill:#339afe;fill-opacity:1;fill-rule:evenodd;stroke:none;stroke-width:1px;stroke-linecap:butt;stroke-linejoin:miter;stroke-opacity:1" />
      <path
         inkscape:connector-curvature="0"
         id="path4617"
         d="m 890,462.36221 0,25 20,0 0,-25 -5,0 0,20 -10,0 0,-20 z"
         style="fill:#339afe;fill-opacity:1;fill-rule:evenodd;stroke:none;stroke-width:1px;stroke-linecap:butt;stroke-linejoin:miter;stroke-opacity:1" />
      <path
         inkscape:connector-curvature="0"
         id="path4600-5"
         transform="translate(0,-435.82677)"
         d="m 940,898.18945 0,25 20,0 0,-5 -15,0 0,-5 15,0 0,-15 -20,0 z m 5,5 10,0 0,5 -10,0 0,-5 z"
         style="fill:#339afe;fill-opacity:1;fill-rule:evenodd;stroke:none;stroke-width:1px;stroke-linecap:butt;stroke-linejoin:miter;stroke-opacity:1" />
      <path
         inkscape:connector-curvature="0"
         id="path4549-8-0"
         d="m 965,487.36221 0,-25 20,0 0,10 -5,0 0,-5 -10,0 0,20 z"
         style="fill:#339afe;fill-opacity:1;fill-rule:evenodd;stroke:none;stroke-width:1px;stroke-linecap:butt;stroke-linejoin:miter;stroke-opacity:1" />
      <path
         inkscape:connector-curvature="0"
         id="path4566-6"
         d="m 995,452.36221 0,10 5,0 0,5 -5,0 0,15 5,0 0,5 -10,0 0,-35 z"
         style="fill:#339afe;fill-opacity:1;fill-rule:evenodd;stroke:none;stroke-width:1px;stroke-linecap:butt;stroke-linejoin:miter;stroke-opacity:1" />
      <path
         inkscape:connector-curvature="0"
         id="path4277"
         d="m 915,462.36221 0,20 5,0 0,-20 -5,0 z m 5,20 0,5 5,0 0,-5 -5,0 z m 5,0 5,0 0,-5 -5,0 0,5 z m 5,-5 5,0 0,-15 -5,0 0,15 z"
         style="fill:#339afe;fill-opacity:1;fill-rule:evenodd;stroke:none;stroke-width:1px;stroke-linecap:butt;stroke-linejoin:miter;stroke-opacity:1" />
    </g>
    <g
       id="g6034"
       transform="translate(0,996)">
      <path
         sodipodi:nodetypes="ccccccccccccccccccccccccccccc"
         inkscape:connector-curvature="0"
         id="path3101-3"
         d="m 474.95935,-4013.895 0,271.4031 90.46772,0 0,2171.2254 90.46773,0 0,-2442.6285 z m 180.93545,2442.6285 0,90.4678 180.93545,0 0,-90.4678 z m 180.93545,90.4678 0,90.4677 452.33865,0 0,-90.4677 z m 452.33865,0 180.9354,0 0,-90.4678 -180.9354,0 z m 180.9354,-90.4678 90.4677,0 0,-2171.2254 90.4678,0 0,-271.4031 -180.9355,0 z"
         style="fill:#000000;fill-opacity:1;stroke:none" />
      <path
         sodipodi:nodetypes="ccccc"
         inkscape:connector-curvature="0"
         id="path3879-7"
         d="m 655.8948,-3471.0887 814.2095,0 0,542.8064 -814.2095,0 z"
         style="fill:#89c4fd;fill-opacity:1;stroke:none" />
      <path
         sodipodi:nodetypes="ccccc"
         inkscape:connector-curvature="0"
         id="path3881-7"
         d="m 1470.1043,-2928.2823 0,542.8063 -814.2095,0 0,-542.8063 z"
         style="fill:#5caefe;fill-opacity:1;stroke:none" />
      <path
         sodipodi:nodetypes="ccccccccc"
         inkscape:connector-curvature="0"
         id="path3883-5"
         d="m 655.8948,-2385.476 814.2095,0 0,814.2095 -180.9354,0 0,90.4678 -452.33865,0 0,-90.4678 -180.93545,0 z"
         style="fill:#339afe;fill-opacity:1;stroke:none" />
      <path
         inkscape:connector-curvature="0"
         id="path3885-5"
         d="m 836.94781,-4058.7662 0,45.2339 90.46772,0 0,-45.2339 -90.46772,0 z m 90.46772,45.2339 0,45.2338 45.23387,0 0,135.7016 -45.23387,0 0,45.2339 90.46777,0 0,-226.1693 -90.46777,0 z m 0,226.1693 -90.46772,0 0,45.2339 90.46772,0 0,-45.2339 z m -90.46772,0 0,-45.2339 -45.23386,0 0,-135.7016 45.23386,0 0,-45.2338 -90.46773,0 0,226.1693 90.46773,0 z"
         style="fill:#339afe;fill-opacity:1;stroke:none" />
      <path
         inkscape:connector-curvature="0"
         id="path3911-3"
         d="m 1198.8187,-4375.9032 0,45.2338 135.7016,0 0,-45.2338 -135.7016,0 z m 135.7016,45.2338 0,45.2339 45.2339,0 0,180.9355 -45.2339,0 0,45.2338 90.4677,0 0,-271.4032 -90.4677,0 z m 0,271.4032 -135.7016,0 0,45.2339 135.7016,0 0,-45.2339 z m -135.7016,0 0,-45.2338 -45.2339,0 0,-180.9355 45.2339,0 0,-45.2339 -90.4677,0 0,271.4032 90.4677,0 z"
         style="fill:#339afe;fill-opacity:1;stroke:none" />
      <path
         inkscape:connector-curvature="0"
         id="path3925-9"
         d="m 1108.351,-3697.1453 0,45.2339 90.4677,0 0,-45.2339 -90.4677,0 z m 90.4677,45.2339 0,90.4677 45.2339,0 0,-90.4677 -45.2339,0 z m 0,90.4677 -90.4677,0 0,45.2339 90.4677,0 0,-45.2339 z m -90.4677,0 0,-90.4677 -45.2339,0 0,90.4677 45.2339,0 z"
         style="fill:#339afe;fill-opacity:1;stroke:none" />
    </g>
    <path
       style="fill:#ffa523;fill-opacity:1;fill-rule:evenodd;stroke:none;stroke-width:1px;stroke-linecap:butt;stroke-linejoin:miter;stroke-opacity:1"
       d="m 1945.0559,-3968.5483 0,203.5523 180.9354,1e-4 0,-203.5526 z"
       id="path5990"
       inkscape:connector-curvature="0" />
    <path
       style="opacity:1;fill:#ff9700;fill-opacity:1;stroke:none;stroke-width:0.5;stroke-linejoin:miter;stroke-miterlimit:4;stroke-dasharray:none;stroke-opacity:1"
       d="m 791.49925,148.02555 0,158.2 158.19992,0 0,-158.2 z m 203.3999,0 0,22.6 22.59995,0 0,67.8 45.1999,0 0,-45.2 45.2,0 0,-22.6 -22.6,0 0,-22.6 -22.6,0 0,22.6 -22.5999,0 0,-22.6 z m 112.99985,22.6 22.6,0 0,-22.6 -22.6,0 z m 22.6,0 0,22.6 22.6,0 0,22.6 22.6,0 0,-67.8 -22.6,0 0,22.6 z m -67.8,67.8 0,22.6 -22.5999,0 0,22.6 22.5999,0 0,22.6 -22.5999,0 0,-22.6 -22.6,0 0,22.6 -22.59995,0 0,-22.6 22.59995,0 0,-45.2 -22.59995,0 0,-45.2 -22.59999,0 0,135.6 22.59999,0 22.59995,0 0,22.6 -22.59995,0 0,22.6 45.19995,0 0,22.6 22.5999,0 0,-45.2 22.6,0 0,45.2 22.6,0 0,22.6 22.6,0 0,-22.6 22.6,0 0,-22.6 -22.6,0 -22.6,0 0,-45.2 -22.6,0 0,-45.2 22.6,0 0,45.2 22.6,0 0,-45.2 22.6,0 0,-22.6 -67.8,0 0,-22.6 z m 22.6,0 45.2,0 0,-22.6 -45.2,0 z m 67.8,22.6 22.6,0 0,-22.6 -22.6,0 z m 0,22.6 0,45.2 22.6,0 0,-45.2 z m -22.6,135.6 0,22.6 22.6,0 0,-22.6 z m 22.6,22.6 0,22.6 -45.2,0 0,-22.6 -45.2,0 0,22.6 22.6,0 0,22.5998 -22.6,0 0,22.6 0,22.6 22.6,0 0,-22.6 22.6,0 0,-22.6 22.6,0 0,22.6 -22.6,0 0,22.6 22.6,0 0,22.6004 22.6,0 0,45.1999 -22.6,0 0,22.6 -67.8,0 0,22.6 22.6,0 0,22.6 -22.6,0 0,45.2 22.6,0 0,-22.6 22.6,0 0,-22.6 22.6,0 0,-22.6 22.6,0 0,-22.6 22.6,0 0,22.6 45.2,0 0,-22.6 22.5999,0 0,22.6 22.6,0 0,22.6 -90.3999,0 0,-22.6 -22.6,0 0,22.6 -22.6,0 0,22.6 45.2,0 0,22.6 180.7999,0 0,-158.1999 -67.8,0 0,22.6 45.2,0 0,22.5999 -45.2,0 0,22.6 -22.6,0 0,-22.6 22.6,0 0,-22.5999 -22.6,0 0,-22.6 22.6,0 0,-22.6004 -22.6,0 0,-45.2 22.6,0 0,-22.5998 0,-22.6 -22.6,0 0,22.6 -22.6,0 0,-22.6 -22.5999,0 0,22.6 -22.6,0 0,22.5998 22.6,0 0,22.6 -22.6,0 0,-22.6 -22.6,0 0,22.6 -22.6,0 0,-22.6 22.6,0 0,-45.1998 z m 22.6,0 45.2,0 0,-22.6 22.5999,0 0,22.6 22.6,0 0,-45.2 22.6,0 0,-22.6 -22.6,0 -22.6,0 0,22.6 -67.7999,0 z m 67.7999,-67.8 0,-22.6 67.8,0 0,-22.6 -112.9999,0 0,22.6 22.6,0 0,22.6 z m 67.8,-22.6 0,45.2 22.6,0 0,22.6 -45.2,0 0,22.6 22.6,0 0,45.1998 22.6,0 0,22.6 22.6,0 0,-45.1998 -22.6,0 0,-22.6 22.6,0 0,-67.8 -22.6,0 0,-22.6 z m -22.6,180.7998 22.6,0 0,-22.6 -22.6,0 z m -158.1999,158.2003 -22.6,0 0,22.6 22.6,0 z m -67.8,-67.8 0,-45.1999 22.6,0 0,-22.6 -67.7999,0 0,-90.4002 -90.39991,0 0,22.5998 45.19997,0 0,22.6 22.59999,0 0,22.6 -22.59999,0 0,22.6004 22.59999,0 0,22.6 c 0,0 45.19995,0 45.19995,0 l 0,22.5999 -45.19995,0 0,-22.5999 -22.59999,0 0,22.5999 0,67.8 22.59999,0 0,22.6 -22.59999,0 0,22.6 67.79994,0 0,-90.4 z m -135.59981,-135.6003 -67.79997,0 0,-22.5998 -22.6,0 0,45.1998 22.6,0 22.59998,0 0,22.6 67.79997,0 0,-22.6 -22.59998,0 z m -67.79997,-22.5998 22.59998,0 0,-22.6 67.79997,0 0,-22.6 -22.59998,0 0,-22.6 -45.19999,0 0,-22.6 -22.59998,0 0,-22.6 45.19997,0 0,22.6 22.6,0 0,-22.6 22.59998,0 0,-22.6 -112.99995,0 0,22.6 -22.59997,0 0,-22.6 -22.6,0 0,203.3998 22.6,0 0,-135.5998 22.59997,0 0,22.6 22.6,0 z m 67.79997,-90.4 0,22.6 22.59998,0 0,22.6 45.19998,0 0,22.6 22.59995,0 0,-22.6 22.6,0 0,-22.6 -67.79994,0 0,-22.6 z m 112.99991,45.2 0,22.6 22.5999,0 0,-22.6 z m 0,22.6 -22.6,0 0,22.6 22.6,0 z m 90.3999,158.2001 0,-22.5999 -22.6,0 0,22.5999 z m 67.8,-452.0001 0,158.2 158.1999,0 c 0,0 0,-158.2 0,-158.2 z m -384.19975,22.6 112.99994,0 0,113 -112.99994,0 z m 406.79975,0 112.9999,0 0,113 -112.9999,0 z m -384.19978,22.6 0,67.8 67.79997,0 0,-67.8 z m 406.79968,0 0,67.8 67.8,0 0,-67.8 z m -67.7999,338.9998 67.7999,0 0,67.8003 -67.7999,0 z m -384.19975,22.6004 0,158.1999 158.19992,0 0,-158.1999 z m 406.79975,0 0,22.6 22.6,0 0,-22.6 z m -384.19975,22.6 112.99994,0 0,112.9999 -112.99994,0 z m 22.59997,22.5999 0,67.8 67.79997,0 0,-67.8 z m 158.19993,22.6 22.59995,0 0,22.6 -22.59995,0 z m 316.39975,22.6 22.6,0 0,45.2 -45.2,0 0,-22.6 22.6,0 z"
       id="rect4273"
       inkscape:connector-curvature="0"
       sodipodi:nodetypes="ccccccccccccccccccccccccccccccccccccccccccccccccccccccccccccccccccccccccccccccccccccccccccccccccccccccccccccccccccccccccccccccccccccccccccccccccccccccccccccccccccccccccccccccccccccccccccccccccccccccccccccccccccccccccccccccccccccccccccccccccccccccccccccccccccccccccccccccccccccccccccccccccccccccccccccccccccccccccccccccccccccccccccccccccccccccccccccccccccccccccccccccccccccccccccccccccccccccccccccccccccccccccccc" />
  </g>
</svg>
